<?xml version="1.0" encoding="utf-8"?>
<svg version="1.1" id="AntiquePlus" xmlns="http://www.w3.org/2000/svg" xmlns:xlink="http://www.w3.org/1999/xlink" width="490" height="300" viewBox="0 0 490 300">
<g>
	<path d="M109.379,267.863c0-7.232,4.396-11.69,11.534-11.69c1.964,0,3.771,0.22,5.456,0.624v2.93
		c-1.715-0.529-3.43-0.811-5.145-0.811c-5.362,0-8.354,3.118-8.354,8.947c0,5.58,3.086,8.947,7.73,8.947
		c1.278,0,2.463-0.188,3.585-0.562v-7.793h-6.702v-2.682h9.977v12.375c-2.245,0.937-4.646,1.403-7.17,1.403
		C113.899,279.555,109.379,274.971,109.379,267.863z"/>
	<path d="M132.421,256.484h3.585v19.89h10.443v2.868h-14.028V256.484z"/>
	<path d="M150.63,268.893h9.976v2.619h-9.976V268.893z"/>
	<path d="M169.493,279.305c3.522-1.591,8.292-8.137,8.292-13.279c0-1.59-0.655-1.777-1.591-2.059
		c0.624-0.654,0.873-0.748,1.715-0.748s2.432,0.748,3.272,2.15c3.18-2.743,4.177-4.146,4.427-4.77
		c-0.125-0.062-1.185-0.062-1.651-0.062c-2.308,0-7.451,0.811-13.062,2.557c-0.841,0-3.18-1.777-3.18-3.242
		c0-1.06,0.187-1.185,0.717-1.9c0.499,0.623,0.624,1.465,2.369,1.465c0.686,0,8.199-1.277,12.906-1.277
		c1.871,0,2.773-0.281,3.211-0.498c1.029,0,1.434,0.748,3.086,2.399c0.53,0.528,0.717,0.528,0.717,1.06
		c-3.646,2.963-7.139,4.553-9.477,5.27c0,4.832-5.27,13.029-11.036,13.029C169.774,279.396,169.743,279.366,169.493,279.305z"/>
	<path d="M200.207,259.479c0.374-0.125,1.559-0.375,1.933-0.375c1.56,0,6.422,0.53,6.422,3.99c0,1.311-1.122,1.934-1.871,1.934
		C205.133,265.025,205.195,262.532,200.207,259.479z M200.644,274.534c0-0.654,0.062-1.247,0.936-1.745
		c0.374,0.748,0.686,1.277,1.496,1.277c2.119,0,10.849-6.422,17.645-14.963c-0.748,6.047-7.264,13.84-16.429,19.203
		C202.732,277.684,200.644,276.343,200.644,274.534z"/>
	<path d="M231.918,278.992c6.079-3.242,7.793-6.858,8.542-10.941c-4.988,0.529-5.58,0.967-7.668,1.496
		c-0.717,0-2.712-1.777-2.712-3.211c0-0.249,0-0.998,0.686-1.59c0.562,0.623,0.062,1.402,3.398,1.402
		c1.34,0,3.959-0.344,6.701-0.687c0.095-0.842,0.156-1.526,0.156-2.12c0-0.623-0.062-1.152-0.187-1.496
		c-1.902,0.312-4.208,0.53-5.955,0.53c-1.403,0-2.308-0.437-2.836-0.624c1.683-0.312,11.813-3.148,11.813-4.676
		c0-0.405-0.249-0.654-0.467-0.811c0.188-0.156,0.28-0.25,0.717-0.25c2.088,0,3.554,2.338,3.554,3.117
		c-0.872,0.562-4.083,1.934-5.611,2.338c1.715,0.312,2.65,0.812,2.65,1.248c0,0.498-0.438,0.155-0.718,2.493
		c5.021-0.562,5.236-0.655,6.142-1.028c1.278,0,3.147,1.371,3.147,2.588c0,0.529-0.311,0.748-0.717,0.779
		c-0.686-0.031-1.402-0.062-2.182-0.062c-2.588,0-5.362,0.188-6.703,0.312c-0.779,6.016-5.736,11.409-10.381,11.409
		C232.729,279.211,232.105,279.148,231.918,278.992z"/>
	<path d="M263.225,266.741c0.373-0.156,1.027-0.188,1.34-0.188c1.527,0,4.271,1.092,4.271,3.057c0,0.717-0.312,1.527-1.403,1.527
		C266.466,271.137,266.56,269.143,263.225,266.741z M264.627,279.148c8.386-2.963,11.846-10.039,11.846-14.061
		c0-0.592-0.405-1.027-1.216-1.465c0.28-0.624,0.936-0.624,1.435-0.654c1.246,0,3.397,1.994,3.397,2.557
		c0,0.279-0.124,0.343-0.28,0.498c-0.779,3.43-5.362,13.343-14.276,13.343C265.188,279.366,264.845,279.271,264.627,279.148z
		 M267.588,263.904c0.281-0.156,0.748-0.188,1.123-0.188c1.34,0,4.488,0.968,4.488,3.492c0,0.842-0.593,1.465-1.246,1.465
		C270.768,268.674,270.768,266.18,267.588,263.904z"/>
	<path d="M294.188,278.523c8.697-4.52,12.562-10.535,15.058-16.521c-1.403,0.249-3.336,0.468-5.705,0.468
		c-2.837,4.114-7.606,6.172-9.165,6.172c-0.28,0-0.593-0.031-0.749-0.154c5.237-3.772,8.573-8.573,8.573-9.977
		c0-1.402-0.438-1.715-0.997-2.089c0.498-0.562,0.873-0.593,1.401-0.593c1.59,0,2.932,1.809,3.585,2.898
		c-0.218,0.375-0.653,0.717-1.122,1.527c2.713,0,4.209-0.499,5.021-1.247c0.717,0,3.678,1.591,3.678,2.619
		c0,0.28-0.561,0.653-0.873,0.812c-6.546,14.151-14.932,16.304-17.924,16.304C294.592,278.743,294.218,278.618,294.188,278.523z"/>
	<path d="M321.471,256.641c2.151-0.312,4.459-0.468,6.859-0.468c5.734,0,8.729,2.524,8.729,7.015c0,5.082-2.898,7.639-8.729,7.639
		c-1.093,0-2.245-0.062-3.431-0.156v8.573h-3.43L321.471,256.641L321.471,256.641z M333.692,263.499
		c0-2.992-1.933-4.583-5.674-4.583c-1.185,0-2.213,0.062-3.117,0.219v8.76c1.029,0.156,2.089,0.25,3.117,0.25
		C331.665,268.145,333.692,266.492,333.692,263.499z"/>
	<path d="M341.396,255.861h3.43v23.381h-3.43V255.861z"/>
	<path d="M350.251,273.007v-9.976h3.211v9.508c0,3.461,0.811,4.521,3.022,4.521c1.965,0,4.054-2.09,4.054-4.054v-9.976h3.272v16.211
		h-3.056l-0.062-2.026h-0.062c-1.497,1.56-3.18,2.339-5.082,2.339C351.904,279.555,350.251,277.714,350.251,273.007z"/>
	<path d="M368.305,278.618v-2.649c1.621,0.717,3.273,1.092,4.988,1.092c2.274,0,3.429-0.687,3.429-2.026
		c0-1.278-0.779-2.026-3.117-2.649c-4.239-1.029-5.767-2.588-5.767-4.988c0-2.897,2.119-4.676,6.233-4.676
		c1.776,0,3.555,0.25,5.301,0.779v2.648c-1.716-0.623-3.398-0.935-4.988-0.935c-2.182,0-3.273,0.623-3.273,1.87
		s0.719,1.995,2.807,2.494c4.77,1.122,6.079,2.432,6.079,5.455c0,2.837-2.244,4.521-6.392,4.521
		C371.703,279.555,369.926,279.242,368.305,278.618z"/>
</g>
<g>
	<path d="M23.736,29.826c0-4.602,2.797-7.438,7.339-7.438c1.25,0,2.4,0.139,3.472,0.397v1.864c-1.091-0.337-2.182-0.516-3.273-0.516
		c-3.412,0-5.316,1.983-5.316,5.693c0,3.551,1.964,5.693,4.919,5.693c0.813,0,1.567-0.119,2.281-0.357v-4.959h-4.265v-1.706h6.348
		v7.875c-1.428,0.595-2.956,0.893-4.562,0.893C26.612,37.265,23.736,34.349,23.736,29.826z"/>
	<path d="M38.399,22.585h2.281v12.656h6.645v1.825h-8.926V22.585z"/>
	<path d="M49.987,30.48h6.348v1.666h-6.348V30.48z"/>
	<path d="M61.99,37.106c2.242-1.012,5.276-5.177,5.276-8.451c0-1.011-0.417-1.13-1.012-1.309c0.397-0.417,0.556-0.476,1.091-0.476
		s1.547,0.476,2.083,1.369c2.023-1.746,2.658-2.638,2.817-3.035c-0.079-0.04-0.754-0.04-1.051-0.04
		c-1.468,0-4.741,0.516-8.312,1.627c-0.536,0-2.023-1.131-2.023-2.063c0-0.674,0.119-0.754,0.457-1.21
		c0.317,0.396,0.396,0.932,1.507,0.932c0.437,0,5.217-0.813,8.212-0.813c1.19,0,1.766-0.178,2.043-0.317
		c0.655,0,0.913,0.476,1.964,1.527c0.337,0.337,0.457,0.337,0.457,0.675c-2.321,1.884-4.542,2.896-6.03,3.352
		c0,3.075-3.353,8.292-7.022,8.292C62.169,37.166,62.149,37.146,61.99,37.106z"/>
	<path d="M81.535,24.49c0.238-0.079,0.992-0.238,1.229-0.238c0.992,0,4.086,0.337,4.086,2.539c0,0.833-0.714,1.229-1.19,1.229
		C84.669,28.021,84.709,26.434,81.535,24.49z M81.813,34.071c0-0.417,0.04-0.793,0.595-1.111c0.238,0.476,0.437,0.813,0.952,0.813
		c1.349,0,6.903-4.086,11.228-9.521c-0.476,3.848-4.622,8.807-10.454,12.219C83.142,36.074,81.813,35.221,81.813,34.071z"/>
	<path d="M101.715,36.907c3.868-2.062,4.959-4.364,5.435-6.962c-3.174,0.337-3.55,0.615-4.879,0.952
		c-0.457,0-1.726-1.13-1.726-2.043c0-0.159,0-0.635,0.437-1.012c0.357,0.396,0.04,0.893,2.162,0.893c0.853,0,2.52-0.218,4.265-0.437
		c0.059-0.536,0.099-0.972,0.099-1.349c0-0.397-0.04-0.734-0.119-0.952c-1.21,0.198-2.678,0.337-3.789,0.337
		c-0.893,0-1.468-0.277-1.805-0.396c1.071-0.198,7.518-2.003,7.518-2.976c0-0.258-0.159-0.417-0.298-0.516
		c0.119-0.099,0.179-0.159,0.457-0.159c1.329,0,2.261,1.488,2.261,1.983c-0.556,0.357-2.599,1.23-3.571,1.488
		c1.091,0.199,1.687,0.516,1.687,0.793c0,0.317-0.278,0.099-0.457,1.587c3.194-0.357,3.333-0.417,3.908-0.654
		c0.813,0,2.003,0.873,2.003,1.646c0,0.337-0.198,0.476-0.456,0.496c-0.437-0.02-0.893-0.04-1.389-0.04
		c-1.646,0-3.412,0.119-4.265,0.198c-0.496,3.829-3.65,7.26-6.605,7.26C102.231,37.046,101.834,37.007,101.715,36.907z"/>
	<path d="M121.637,29.112c0.238-0.099,0.654-0.119,0.853-0.119c0.972,0,2.717,0.694,2.717,1.944c0,0.457-0.198,0.972-0.893,0.972
		C123.7,31.909,123.76,30.639,121.637,29.112z M122.53,37.007c5.336-1.885,7.538-6.388,7.538-8.946c0-0.377-0.258-0.655-0.773-0.933
		c0.179-0.396,0.595-0.396,0.913-0.417c0.793,0,2.162,1.27,2.162,1.626c0,0.179-0.08,0.218-0.179,0.317
		c-0.496,2.182-3.412,8.49-9.085,8.49C122.886,37.146,122.668,37.086,122.53,37.007z M124.414,27.307
		c0.179-0.099,0.476-0.119,0.714-0.119c0.853,0,2.856,0.615,2.856,2.222c0,0.536-0.377,0.933-0.793,0.933
		C126.437,30.342,126.437,28.755,124.414,27.307z"/>
	<path d="M141.341,36.61c5.535-2.876,7.994-6.705,9.581-10.513c-0.893,0.159-2.123,0.297-3.63,0.297
		c-1.805,2.619-4.84,3.928-5.832,3.928c-0.179,0-0.377-0.02-0.476-0.099c3.333-2.4,5.455-5.455,5.455-6.348
		s-0.278-1.091-0.635-1.329c0.317-0.357,0.555-0.377,0.893-0.377c1.012,0,1.865,1.15,2.281,1.845
		c-0.139,0.238-0.417,0.457-0.714,0.972c1.726,0,2.678-0.317,3.194-0.793c0.457,0,2.341,1.012,2.341,1.666
		c0,0.179-0.357,0.417-0.556,0.516c-4.166,9.005-9.501,10.375-11.406,10.375C141.598,36.749,141.361,36.669,141.341,36.61z"/>
	<path d="M160.211,31.829c0-3.352,1.21-5.951,1.21-7.558c0-0.773-0.278-1.17-0.774-1.349c0.159-0.298,0.437-0.456,0.873-0.456
		c1.23,0,1.944,1.329,1.944,2.598c0,1.984-1.666,2.5-1.666,6.269c0,0.516,0.06,1.091,0.119,1.25c0.298,0,0.813-2.4,2.023-3.848
		c-0.02,0.873-0.952,2.36-0.952,4.642c0,1.25,0.357,2.043,0.357,2.619c0,0.536-0.496,0.972-0.893,0.972
		C161.044,36.967,160.211,34.963,160.211,31.829z M166.241,33.119c0-0.536,0.218-1.567,0.595-2.103
		c0.119,2.023,0.337,3.352,3.471,3.352c1.15,0,1.805-0.417,2.043-0.773c0.933,0,1.825,0.337,1.825,0.972
		c0,0.575-0.933,1.646-3.551,1.646C167.729,36.213,166.241,34.944,166.241,33.119z M166.539,24.529
		c0.357,0.357,1.468,0.516,2.559,0.516c1.19,0,2.281-0.397,2.658-1.032c0.933,0.06,1.944,0.317,1.944,0.992
		c0,1.15-2.242,1.527-3.392,1.527C168.185,26.533,166.539,26.116,166.539,24.529z"/>
	<path d="M24.628,53.767h2.103l4.384,8.53h0.04l4.384-8.53h2.182v14.48h-2.182V57.536h-0.04l-3.372,6.745h-1.984l-3.372-6.745h-0.04
		v10.711h-2.103V53.767z"/>
	<path d="M45.739,63.328h-4.86v-1.667h4.86v-4.919h1.785v4.919h4.86v1.667h-4.86v4.919h-1.785V63.328z"/>
	<path d="M55.542,53.767h8.53v1.785h-6.348v4.325h5.951v1.706h-5.951v6.665h-2.182V53.767z"/>
	<path d="M66.138,61.007c0-2.34,0.575-4.166,1.746-5.475c1.15-1.309,2.718-1.964,4.701-1.964c3.967,0,6.447,2.757,6.447,7.438
		c0,4.682-2.479,7.439-6.447,7.439S66.138,65.688,66.138,61.007z M76.81,61.007c0-3.749-1.527-5.653-4.225-5.653
		s-4.225,1.904-4.225,5.653c0,1.885,0.377,3.293,1.111,4.226c0.734,0.952,1.766,1.428,3.114,1.428
		C75.283,66.66,76.81,64.756,76.81,61.007z"/>
	<path d="M81.397,53.767h2.143l6.189,10.811h0.04V53.767h2.143v14.48h-2.143l-6.189-10.811h-0.04v10.811h-2.143V53.767z"/>
	<path d="M98.739,55.592h-4.066v-1.825h10.315v1.825h-4.066v12.655h-2.182V55.592z"/>
	<path d="M107.549,67.553V65.47c1.15,0.793,2.341,1.19,3.571,1.19c1.924,0,2.876-0.753,2.876-2.281c0-1.17-0.674-1.944-2.479-2.579
		c-3.015-1.031-4.265-2.42-4.265-4.463c0-2.321,1.567-3.769,4.166-3.769c1.488,0,2.876,0.258,4.166,0.793v2.043
		c-1.329-0.734-2.638-1.091-3.967-1.091c-1.428,0-2.222,0.754-2.222,2.023c0,1.031,0.714,1.904,2.123,2.38
		c3.491,1.17,4.662,2.459,4.662,4.662c0,2.678-1.667,4.066-4.86,4.066C109.949,68.446,108.699,68.148,107.549,67.553z"/>
	<path d="M123.164,66.819c-0.06-1.825,1.19-3.055,3.154-4.404c-0.06-1.19-0.238-1.786-0.972-1.786c-1.17,0-2.003,2.738-3.134,2.738
		c-0.516,0-0.793-0.317-0.793-0.933c0-0.516,0.119-0.734,0.476-1.27c0.933-0.734,2.023-1.666,2.797-3.848
		c-1.15,0.04-2.697-0.139-2.697-1.408c0-0.258,0.04-0.496,0.178-0.754c0.337,0.536,0.595,0.734,1.448,0.734
		c0.654,0,1.388-0.159,1.587-0.198c0.258-0.714,0.337-1.389,0.337-1.805c0-0.694-0.337-0.913-0.912-1.111
		c0.476-0.536,0.793-0.575,1.031-0.575c0.972,0,1.667,1.13,1.686,1.408c-0.159,0.317-0.297,0.873-0.516,1.607
		c1.25-0.337,0.952-0.734,1.25-1.051c0.556-0.02,1.845,0.159,1.845,0.932c0,0.992-2.5,1.746-3.61,1.924
		c-0.377,0.753-1.012,2.202-1.587,2.896c0.377-0.218,0.932-0.278,1.15-0.278c1.031,0,1.646,0.694,1.805,1.825
		c0.496-2.202,2.142-3.65,3.531-3.65s2.559,1.051,2.559,2.162c0,1.587-2.162,1.766-5.653,3.055l0.04,1.091
		c0.04,1.111,0,2.004-0.793,2.004c-0.437,0-0.913-0.397-1.091-1.151v-1.309c-1.329,0.853-1.666,1.686-1.666,2.281
		c0,0.992,0.833,1.408,2.559,1.408c1.944,0,2.44-0.516,3.015-0.912c0.476,0.04,1.527,0.575,1.547,1.071
		c0.04,0.793-0.813,1.646-4.205,1.646C124.85,69.16,123.204,68.267,123.164,66.819z M132.19,59.5c0-0.437-0.516-0.754-1.468-0.714
		c-0.972,0.04-2.202,1.924-2.321,2.718C130.642,60.511,132.19,60.293,132.19,59.5z"/>
	<path d="M138.265,57.893c2.876-1.567,5.396-3.392,7.538-5.475h2.539c2.122,2.083,4.642,3.908,7.518,5.475l-0.873,1.706
		c-1.012-0.556-1.865-1.031-2.539-1.468v1.349h-10.771v-1.349c-0.675,0.437-1.528,0.912-2.539,1.468L138.265,57.893z
		 M140.328,61.483h13.469v8.252h-2.083v-0.972h-9.303v0.972h-2.083V61.483z M151.952,57.793c-1.706-1.13-3.333-2.479-4.879-4.046
		c-1.567,1.567-3.174,2.916-4.9,4.046H151.952z M151.715,67.117v-3.928h-9.303v3.928H151.715z"/>
	<path d="M157.889,67.89c1.17-2.321,1.607-4.622,1.607-9.085v-4.523h7.597c-0.02-0.873-0.04-1.547-0.04-2.023h1.964
		c0,0.476,0.02,1.15,0.04,2.023h3.114c-0.694-0.476-1.408-0.912-2.182-1.309l1.051-1.388c1.032,0.535,2.123,1.21,3.273,2.043
		l-0.516,0.654h1.389v1.726h-6.01c0.218,2.36,0.615,4.522,1.25,6.447c0.913-1.468,1.587-3.134,2.023-5.039l1.865,0.536
		c-0.556,2.52-1.587,4.741-3.015,6.646c0.376,0.773,0.773,1.388,1.13,1.845c0.357,0.436,0.655,0.674,0.833,0.674
		c0.397,0,0.714-1.111,0.913-3.273l1.865,0.654c-0.119,1.746-0.437,3.015-0.873,3.849c-0.476,0.813-1.011,1.229-1.626,1.229
		c-1.012,0-2.459-1.19-3.669-3.372c-1.468,1.448-3.134,2.5-4.999,3.174l-1.012-1.626c2.023-0.714,3.729-1.845,5.138-3.392
		c-0.932-2.4-1.547-5.177-1.805-8.351h-5.673v2.123h5.197c0,1.626,0,2.698-0.04,3.789c-0.04,1.091-0.04,1.686-0.159,2.341
		s-0.159,0.952-0.357,1.25c-0.218,0.337-0.317,0.397-0.615,0.496c-0.337,0.099-0.536,0.099-0.992,0.099
		c-0.536,0-1.428-0.06-2.658-0.159l-0.198-1.706c0.773,0.099,1.468,0.139,2.063,0.139c0.496,0,0.793-0.218,0.893-0.635
		c0.099-0.397,0.139-1.726,0.139-3.987h-3.273v0.417c0,3.947-0.734,7.121-2.182,9.502L157.889,67.89z"/>
	<path d="M182.473,62.693c0-3.293,0.317-5.436,0.317-7.617c0-0.992-0.556-1.17-0.972-1.567c0.159-0.297,0.714-0.555,1.071-0.555
		c1.805,0,2.38,1.369,2.459,1.983c-0.635,1.23-1.071,5.118-1.071,7.776c0,3.213,0.893,4.384,3.353,4.384
		c2.4,0,5.058-2.956,5.852-3.65c-0.575,2.301-3.273,5.396-6.288,5.396C184.972,68.842,182.473,67.989,182.473,62.693z"/>
	<path d="M199.895,66.7c0-0.238,0.08-0.774,0.179-1.051c0.932-0.694,2.123-4.801,2.38-6.824c-0.476,0.02-0.833,0.06-1.19,0.06
		c-1.051,0-2.083-0.496-2.083-1.687c0.258,0.06,1.012,0.298,1.706,0.298c0.555,0,1.27-0.119,1.825-0.357
		c0.099-0.674,0.159-1.606,0.159-1.884c0-1.428-0.635-1.726-1.349-1.845c0.258-0.437,0.773-0.754,1.25-0.754
		c0.516,0,1.904,0.873,1.983,1.567c-0.099,0.238-0.277,1.468-0.417,2.38c1.051-0.496,1.31-0.913,1.31-1.389
		c0-0.397-0.576-0.516-0.813-0.972c0.297,0.04,0.635,0.218,0.992,0.218c0.238,0,0.615-0.159,0.793-0.238
		c0.734,0.139,1.567,0.436,1.567,1.15c0,1.111-2.361,2.638-4.086,3.174c-1.567,9.224-2.083,9.998-3.035,9.998
		C200.312,68.545,199.895,67.474,199.895,66.7z M206.997,65.133c0-0.893,0.357-1.527,0.853-2.122
		c-0.04,0.476-0.099,1.17-0.099,1.408c0,1.071,1.646,1.666,2.976,1.666c0.575,0,0.992-0.04,1.388-0.258
		c0.933,0,2.003,0.655,2.003,1.111c0,1.051-1.785,1.151-3.094,1.151C208.604,68.089,206.997,66.938,206.997,65.133z M211.718,58.527
		c-0.199-0.198-0.933-0.337-1.845-0.337c-0.635,0-2.003,0.317-2.301,0.317c0.754-0.972,2.5-1.646,4.086-1.646
		c1.468,0,2.479,0.536,2.479,1.428c0,0.992-2.817,0.952-4.622,1.726C209.893,59.38,211.361,58.686,211.718,58.527z"/>
	<path d="M221.444,66.779c-0.556-1.17-2.519-2.599-2.896-3.848c1.27,0,5.614,1.032,5.614,3.63c0,0.813-0.437,1.825-1.329,1.825
		C222.158,68.386,221.821,67.533,221.444,66.779z"/>
	<path d="M27.901,99.31c4.226-1.389,7.28-4.701,8.371-8.312c-0.179-0.06-0.198-0.08-0.417-0.08c-1.29,0-5.296,0.813-6.943,1.329
		c-0.833-0.436-1.606-1.289-1.606-2.003c0-0.357,0.159-0.595,0.535-0.813c0.278,0.298,0.258,0.556,1.19,0.556
		c0.575,0,7.062-0.556,8.073-1.25c0.833,0.218,2.182,1.27,2.182,1.963c0,0.337-0.278,0.179-0.714,0.913
		c-1.667,4.503-5.713,7.875-9.7,7.875C28.735,99.488,28.259,99.448,27.901,99.31z M29.092,86.456c0-0.357,0-0.457,0.278-0.813
		c0.456,0.377,0.456,0.556,1.606,0.556c1.448,0,3.65-0.516,4.8-0.992c0.714,0.218,1.706,0.516,1.706,1.012
		c0,0.476-0.456,0.754-0.952,0.952c-0.853,0.238-4.166,0.635-5.713,0.635C29.706,87.546,29.092,86.852,29.092,86.456z"/>
	<path d="M52.425,98.853c0-0.635,0.178-2.301,0.178-4.86c0-0.654-0.099-1.964-0.218-2.241c-2.123,1.686-4.721,2.836-5.753,2.836
		c-0.238,0-0.516-0.06-0.833-0.179c4.602-2.281,8.926-7.458,8.926-8.827c0-0.278-0.099-0.417-0.436-0.813
		c0.297-0.298,0.496-0.437,0.893-0.437c1.309,0,2.123,1.646,2.123,2.103c-0.437,0.575-1.865,2.341-3.69,4.225
		c0.496,0.199,1.012,0.199,1.349,0.972c-0.139,0.516-0.337,0.396-0.337,4.027c0,1.428,0.159,2.856,0.159,3.491
		c0,0.753-0.377,1.369-0.893,1.369C53.476,100.52,52.722,99.944,52.425,98.853z"/>
	<path d="M69.967,93.716c0-0.437,0.02-0.933,0.02-1.409c-1.428,0.575-2.459,1.19-3.194,1.626c-0.535,0-1.884-0.952-1.884-2.281
		c0-0.198,0.06-0.615,0.357-0.893c0.397,0.536,0.595,0.774,1.091,0.774c0.555,0,1.825-0.417,3.669-1.091
		c0-0.813,0.02-1.587,0.02-2.162c0-1.666-0.02-2.36-0.972-2.658c0.179-0.357,0.397-0.635,1.032-0.635
		c0.516,0,1.765,0.615,2.241,1.468c-0.258,1.051-0.337,1.746-0.476,3.452c3.769-1.151,4.979-1.528,5.495-2.063
		c0.396,0.02,2.062,1.23,2.062,2.004c0,0.198-0.376,0.317-0.694,0.516c-1.389,1.805-3.928,4.046-5.177,4.046
		c-0.1,0-0.417-0.02-0.595-0.059c1.309-1.29,2.459-2.718,3.372-4.226c-0.873,0.238-2.539,0.793-4.562,1.567
		c-0.06,0.853-0.119,1.349-0.119,1.884c0,2.698,0.337,3.095,2.479,3.095c0.932,0,2.063-0.159,2.698-0.635
		c0.178-0.06,0.436-0.099,0.615-0.099c0.893,0,1.805,0.674,1.805,1.349c0,0.159-0.04,0.317-0.119,0.476
		c-1.071,0.496-4.384,0.773-4.88,0.773C70.304,98.536,69.967,96.79,69.967,93.716z"/>
	<path d="M86.358,86.852c0.238-0.079,0.992-0.238,1.229-0.238c0.992,0,4.086,0.337,4.086,2.539c0,0.833-0.714,1.229-1.19,1.229
		C89.491,90.383,89.531,88.796,86.358,86.852z M86.635,96.433c0-0.417,0.04-0.793,0.595-1.111c0.238,0.476,0.437,0.813,0.952,0.813
		c1.349,0,6.903-4.086,11.228-9.521c-0.476,3.848-4.622,8.807-10.454,12.219C87.964,98.437,86.635,97.583,86.635,96.433z"/>
	<path d="M104.95,98.496c3.888-1.983,6.844-5.375,9.264-10.811c-1.746,0.396-4.027,1.626-5.574,2.023
		c-0.377-0.139-1.646-1.012-1.646-2.202c0-0.556,0.258-0.793,0.555-0.952c0.139,0.218,0.556,0.754,1.071,0.754
		c1.15,0,5.197-0.734,6.249-1.527c0.932,0,2.4,0.972,2.4,1.567c0,0.198-0.396,0.417-0.773,0.635
		c-0.555,1.111-2.023,3.709-2.916,4.999c2.202,0.833,4.9,2.579,4.9,4.206c0,0.734-0.199,1.349-1.17,1.349
		c-1.111,0-1.051-2.579-4.206-4.999c-2.162,2.936-6.05,5.078-7.319,5.078C105.645,98.615,105.347,98.576,104.95,98.496z"/>
	<path d="M131.319,99.17c3.035-1.15,6.844-2.777,6.844-7.498c0-3.352-2.341-5.138-5.495-5.138c0.337,0.496,0.595,1.071,0.595,1.686
		c0,3.293-2.995,9.323-6.189,9.323c-1.031,0-1.706-0.893-2.301-1.944c-0.556-0.992-0.575-1.409-0.575-2.44
		c0-3.769,3.649-7.696,8.648-7.696c4.364,0,7.3,2.598,7.3,6.923c0,4.879-5.872,6.863-7.756,6.863
		C132.113,99.25,131.577,99.25,131.319,99.17z M132.053,87.348c0-0.357-0.119-0.635-0.159-0.774c-2.599,0.119-6.03,3.016-6.03,6.289
		c0,1.289,0.476,2.579,1.329,2.579C128.443,95.441,132.053,91.355,132.053,87.348z"/>
	<path d="M148.702,100.599c-0.297-0.139-0.496-0.357-0.575-0.694c-0.099-0.317-0.159-0.893-0.159-1.686v-2.658h2.083v2.34
		c0,1.17,0.02,1.21,0.754,1.29c0.476,0.04,1.091,0.06,1.825,0.06c0.714,0,1.329-0.02,1.845-0.06c0.913-0.079,1.17-0.218,1.349-0.773
		c0.06-0.238,0.119-0.714,0.178-1.409l1.687,0.278c-0.317-0.456-0.595-0.873-0.893-1.29l1.329-0.674
		c-0.913-0.198-1.785-1.051-2.638-2.539c-0.793,0.635-1.666,1.19-2.618,1.667l-0.397-0.576h-3.809v0.813h-1.884v-5.296h6.387v2.876
		c0.516-0.317,1.012-0.714,1.527-1.17c-0.536-1.428-0.893-2.995-1.111-4.741h-7.419v2.122c0,2.639-0.734,5.693-1.805,7.538
		l-1.429-1.686c0.853-1.865,1.31-4.285,1.31-7.28V84.69h9.204c-0.02-0.595-0.04-1.051-0.04-1.349h1.825
		c0,0.317,0.02,0.793,0.04,1.349h1.726c-0.317-0.476-0.536-0.853-0.694-1.071l1.626-0.654c0.337,0.436,0.694,1.012,1.111,1.726
		h1.111v1.667h-4.741c0.139,1.17,0.377,2.281,0.694,3.273c0.635-0.793,1.229-1.706,1.785-2.797l1.527,0.773
		c-0.714,1.507-1.587,2.797-2.559,3.888c0.397,0.853,0.913,1.507,1.19,1.765c0.139,0.139,0.258,0.218,0.317,0.218
		c0.357,0,0.674-0.813,0.913-2.4l1.587,0.457c-0.337,2.479-1.091,3.769-2.281,3.828c1.012,1.389,1.864,2.837,2.599,4.325
		l-1.687,0.773c-0.456-0.932-0.992-1.884-1.587-2.817c-0.099,1.448-0.159,2.063-0.615,2.559c-0.456,0.476-0.932,0.555-2.182,0.654
		c-0.754,0.06-1.567,0.08-2.479,0.08C151.162,100.936,149.258,100.876,148.702,100.599z M142.949,99.528
		c1.051-1.151,1.865-2.44,2.38-3.849l1.667,0.734c-0.576,1.667-1.409,3.095-2.559,4.265L142.949,99.528z M146.679,87.13h6.605v1.508
		h-6.605V87.13z M151.36,92.446v-1.607h-2.698v1.607H151.36z M150.626,95.878l1.15-1.27c1.131,0.694,2.202,1.507,3.233,2.42
		l-1.13,1.309C152.927,97.465,151.856,96.651,150.626,95.878z"/>
	<path d="M162.772,87.705l0.714-1.507c1.408,0.516,2.638,1.031,3.709,1.547l-0.734,1.547C165.43,88.756,164.2,88.241,162.772,87.705
		z M170.746,96.771c-1.786,1.428-4.186,2.698-7.181,3.789l-0.734-1.765c3.353-1.131,5.872-2.4,7.558-3.809h-6.943v-1.746h7.3v-1.329
		h2.123v1.329h7.3v1.746h-6.943c1.686,1.408,4.205,2.678,7.578,3.809l-0.754,1.765c-2.995-1.091-5.396-2.36-7.181-3.789v4.166
		h-2.123V96.771z M163.169,91.415c1.983-0.853,3.63-1.865,4.979-2.956l0.853,1.488c-1.409,1.13-3.055,2.123-4.939,2.956
		L163.169,91.415z M163.704,85.305l0.734-1.527c1.389,0.476,2.618,0.933,3.67,1.409l-0.754,1.567
		C166.124,86.198,164.914,85.702,163.704,85.305z M167.929,91.137c2.202-1.071,3.333-2.222,3.888-4.146h-3.312v-1.786h3.61
		c0.06-0.476,0.079-1.051,0.079-1.765h2.083c0,0.674-0.02,1.27-0.079,1.765h3.412v4.741c0,0.516,0.02,0.516,0.635,0.516
		c0.337,0,0.536-0.139,0.635-0.417c0.06-0.258,0.119-1.091,0.179-2.479l1.825,0.198c-0.06,1.547-0.079,2.261-0.297,2.995
		c-0.218,0.754-0.337,0.972-0.833,1.21c-0.496,0.218-0.893,0.218-1.884,0.218c-1.944,0-2.242-0.238-2.242-1.924v-3.273H173.9
		c-0.615,2.618-2.063,4.324-4.741,5.673L167.929,91.137z"/>
	<path d="M187.376,93.874c0-3.292,0.317-5.435,0.317-7.617c0-0.992-0.556-1.17-0.972-1.567c0.159-0.297,0.714-0.555,1.071-0.555
		c1.805,0,2.38,1.369,2.459,1.983c-0.635,1.23-1.071,5.118-1.071,7.776c0,3.213,0.893,4.384,3.353,4.384
		c2.4,0,5.058-2.956,5.852-3.65c-0.575,2.301-3.273,5.396-6.288,5.396C189.875,100.023,187.376,99.17,187.376,93.874z"/>
	<path d="M204.084,95.521c0-0.516,0.258-1.17,0.575-1.507c0.793-0.179,2.896-3.551,3.333-5.019c-1.428,0-3.075-0.873-3.095-2.222
		c0.278,0.198,0.913,0.654,2.123,0.654c0.457,0,1.032,0,1.587-0.119c0.258-0.873,0.357-1.527,0.357-1.885
		c0-0.932-0.694-0.932-0.952-1.071c0.258-0.396,0.893-0.615,1.329-0.615c0.734,0,1.488,0.774,1.488,1.428
		c0,0.337-0.536,1.607-0.555,1.785c0.595-0.159,1.289-0.595,1.289-0.952c0-0.178-0.297-0.476-0.595-0.833
		c0.635,0.218,1.25,0.377,1.388,0.377c0.139,0,0.417-0.079,0.556-0.139c0.357,0.079,0.635,0.476,0.635,0.893
		c0,1.15-1.865,2.261-3.888,2.479c-1.309,3.353-3.57,8.054-4.741,8.054C204.619,96.83,204.084,96.354,204.084,95.521z
		 M208.646,97.465c0-0.913,0.893-2.103,3.352-2.103c0.437,0,0.893,0.08,1.389,0.179c0-0.297-0.08-1.051-0.08-1.825
		c0-3.511,2.678-3.293,3.69-3.571c-0.576-0.853-2.44-1.389-3.273-1.686c0.436-0.198,1.487-0.357,1.864-0.357
		c1.488,0,3.709,1.15,3.709,2.459c0,0.476-0.139,0.992-0.615,0.992c-0.813,0-1.051-0.575-2.46-0.575
		c-0.654,0-1.289,0.377-1.289,1.924c0,0.972,0.06,2.599,0.099,3.035c0.773,0.376,3.035,0.932,3.035,2.479
		c0,0.496-0.277,0.853-0.813,0.853c-1.21,0-1.21-0.793-2.321-1.567c-0.139,0.655-0.635,2.261-3.233,2.261
		C209.995,99.964,208.646,98.873,208.646,97.465z M213.367,97.028c-0.575-0.337-1.091-0.417-1.686-0.417
		c-1.15,0-1.527,0.496-1.527,0.773c0,0.516,0.754,1.091,1.527,1.091C212.97,98.477,213.268,97.683,213.367,97.028z"/>
	<path d="M224.859,92.406c-0.04-0.952,0.139-1.944,0.139-2.698c0-2.103-0.754-1.924-1.448-2.42c0.139-0.258,0.734-0.615,1.131-0.615
		c0.972,0,2.241,0.714,2.241,2.301c0,0.317-0.377,1.885-0.377,3.531c0,1.786,0.734,2.619,1.032,2.757
		c0.417-0.159,1.21-3.551,2.519-4.503c-0.099,0.655-1.23,3.134-1.23,5.217c0,0.972,0.853,0.952,0.853,1.944
		c0,0.417-0.417,0.754-1.111,0.754C227.656,98.675,225.077,97.544,224.859,92.406z M236.919,93.081
		c-0.396-3.174-1.547-4.146-3.868-4.583c0.496-0.297,1.131-0.437,1.786-0.437c2.062,0,4.265,2.46,4.265,5.098
		c0,1.25-0.556,1.408-0.952,1.408C237.733,94.568,237.018,93.874,236.919,93.081z"/>
	<path d="M33.495,130.312c-0.933-1.547-1.944-2.341-2.182-2.638c0.297,0,1.646,0.238,2.36,0.734
		c0.139-0.198,0.179-1.884,0.179-4.622c-2.182,2.797-5.752,4.384-7.161,4.384c-0.377,0-0.654-0.06-0.833-0.218
		c4.106-2.281,6.249-4.424,7.518-6.625c-2.261,0.258-4.126,0.734-4.483,0.813c-0.337-0.139-1.865-0.933-1.865-1.924
		c0-0.377,0.139-0.913,0.437-0.913c0.218,0.397,0.853,0.754,1.746,0.754c1.27,0,2.936-0.179,4.602-0.377
		c0-1.15,0.02-2.083,0.02-2.559c0-0.496-0.396-0.972-0.932-1.31c0.159-0.417,0.536-0.674,0.913-0.674
		c0.813,0,2.261,1.329,2.261,1.507c0,0.278-0.397,0.873-0.417,2.797c1.865-0.179,2.321-0.337,2.618-0.556
		c0.417,0,1.964,0.556,1.964,1.448c0,0.417-0.297,0.595-0.893,0.595c-0.992,0-2.777,0.02-3.67,0.139l0.02,7.855
		c0,1.051-1.21,2.043-1.686,2.043C33.714,130.967,33.554,130.55,33.495,130.312z"/>
	<path d="M44.451,122.874c0-0.635,0.159-0.853,0.555-1.17c0.575,0.555,0.774,0.952,2.202,0.952c1.805,0,9.145-0.516,10.613-0.873
		c0.555-0.139,0.575-0.178,0.734-0.178c0.813,0,2.599,0.992,2.599,1.825c0,0.734-0.516,0.833-0.833,0.833
		c-0.417-0.158-2.341-0.238-3.67-0.238c-1.567,0-8.232,0.397-9.978,1.071C45.78,125.095,44.451,124.004,44.451,122.874z"/>
	<path d="M66.694,130.213c4.701-2.539,7.141-5.058,8.847-10.275c-0.079,0-0.119-0.04-0.238-0.04c-1.468,0-5.256,0.893-7.042,1.686
		c-0.635-0.317-1.845-1.369-1.845-2.043c0-0.734,0.238-0.853,0.437-1.032c0.496,0.556,0.734,0.655,1.25,0.655
		c0.575,0,6.109-0.437,7.776-1.349c1.091,0.218,2.678,1.17,2.678,1.964c0,0.119-0.278,0.337-0.456,0.536
		c-2.956,7.538-7.816,10.018-10.692,10.018C67.011,130.332,66.753,130.252,66.694,130.213z M77.366,116.169
		c0-1.111,0.912-2.023,2.023-2.023s2.023,0.912,2.023,2.023c0,1.11-0.913,2.023-2.023,2.023S77.366,117.279,77.366,116.169z
		 M80.44,116.169c0-0.576-0.476-1.052-1.051-1.052s-1.051,0.476-1.051,1.052c0,0.575,0.476,1.051,1.051,1.051
		S80.44,116.744,80.44,116.169z"/>
	<path d="M86.358,118.033c0.238-0.079,0.992-0.238,1.229-0.238c0.992,0,4.086,0.337,4.086,2.539c0,0.833-0.714,1.23-1.19,1.23
		C89.491,121.564,89.531,119.978,86.358,118.033z M86.635,127.614c0-0.417,0.04-0.793,0.595-1.111
		c0.238,0.476,0.437,0.813,0.952,0.813c1.349,0,6.903-4.086,11.228-9.521c-0.476,3.848-4.622,8.807-10.454,12.219
		C87.964,129.618,86.635,128.765,86.635,127.614z"/>
	<path d="M105.942,118.113c0.377-0.139,0.873-0.159,1.19-0.159c1.329,0,3.511,1.349,3.511,2.976c0,1.051-0.576,1.507-1.091,1.507
		C108.699,122.437,108.759,119.719,105.942,118.113z M106.2,129.499c5.614-1.865,9.323-7.657,9.323-11.128
		c0-0.595-0.396-0.595-0.853-0.972c0.376-0.437,0.813-0.456,1.17-0.456c1.091,0,2.479,1.448,2.5,1.983
		c0,0.179-0.218,0.238-0.396,0.635c-1.904,5.931-6.03,10.097-10.95,10.097C106.339,129.657,106.478,129.657,106.2,129.499z"/>
	<path d="M123.821,122.874c0-0.635,0.159-0.853,0.555-1.17c0.575,0.555,0.774,0.952,2.202,0.952c1.805,0,9.145-0.516,10.613-0.873
		c0.555-0.139,0.575-0.178,0.734-0.178c0.813,0,2.599,0.992,2.599,1.825c0,0.734-0.516,0.833-0.833,0.833
		c-0.417-0.158-2.341-0.238-3.67-0.238c-1.567,0-8.232,0.397-9.978,1.071C125.15,125.095,123.821,124.004,123.821,122.874z"/>
	<path d="M144.635,129.677c3.888-1.983,6.844-5.375,9.264-10.811c-1.746,0.397-4.027,1.627-5.574,2.023
		c-0.376-0.139-1.646-1.012-1.646-2.202c0-0.556,0.258-0.793,0.555-0.952c0.139,0.218,0.556,0.754,1.071,0.754
		c1.15,0,5.197-0.734,6.249-1.528c0.932,0,2.4,0.972,2.4,1.567c0,0.198-0.396,0.417-0.773,0.635
		c-0.556,1.111-2.023,3.709-2.916,4.999c2.202,0.833,4.899,2.579,4.899,4.206c0,0.734-0.198,1.349-1.17,1.349
		c-1.111,0-1.052-2.579-4.206-4.999c-2.162,2.936-6.05,5.078-7.32,5.078C145.33,129.796,145.032,129.757,144.635,129.677z"/>
	<path d="M166.303,130.015c4.701-2.539,7.141-5.059,8.847-10.275c-0.08,0-0.119-0.04-0.238-0.04c-1.468,0-5.257,0.893-7.042,1.686
		c-0.635-0.317-1.845-1.369-1.845-2.043c0-0.734,0.238-0.853,0.437-1.032c0.496,0.555,0.734,0.655,1.25,0.655
		c0.575,0,6.11-0.437,7.776-1.349c1.091,0.218,2.678,1.17,2.678,1.964c0,0.119-0.277,0.337-0.456,0.536
		c-2.956,7.538-7.815,10.018-10.692,10.018C166.62,130.134,166.363,130.054,166.303,130.015z"/>
	<path d="M192.116,130.927c-0.734-1.229-1.547-1.864-1.746-2.103c0.238,0,1.329,0.179,1.884,0.575
		c0.119-0.159,0.159-1.507,0.159-3.689c-1.746,2.242-4.602,3.511-5.732,3.511c-0.298,0-0.536-0.06-0.675-0.179
		c3.293-1.825,4.999-3.551,6.011-5.296c-1.805,0.198-3.293,0.575-3.571,0.635c-0.278-0.099-1.507-0.734-1.507-1.527
		c0-0.297,0.119-0.734,0.357-0.734c0.179,0.317,0.674,0.595,1.389,0.595c1.031,0,2.36-0.139,3.689-0.298
		c0-0.912,0.02-1.666,0.02-2.043c0-0.396-0.317-0.773-0.754-1.051c0.139-0.337,0.437-0.536,0.734-0.536
		c0.655,0,1.805,1.071,1.805,1.21c0,0.218-0.317,0.694-0.337,2.242c1.508-0.159,1.865-0.278,2.103-0.457
		c0.337,0,1.567,0.457,1.567,1.17c0,0.317-0.238,0.476-0.714,0.476c-0.793,0-2.222,0-2.936,0.099l0.02,6.289
		c0,0.833-0.972,1.626-1.349,1.626C192.295,131.443,192.176,131.125,192.116,130.927z"/>
	<path d="M205.413,118.033c0.238-0.079,0.992-0.238,1.229-0.238c0.992,0,4.086,0.337,4.086,2.539c0,0.833-0.714,1.23-1.19,1.23
		C208.547,121.564,208.587,119.978,205.413,118.033z M205.69,127.614c0-0.417,0.04-0.793,0.595-1.111
		c0.238,0.476,0.437,0.813,0.952,0.813c1.349,0,6.903-4.086,11.228-9.521c-0.476,3.848-4.622,8.807-10.454,12.219
		C207.019,129.618,205.69,128.765,205.69,127.614z"/>
	<path d="M229.064,129.459c0.198-1.884,0.337-4.166,0.337-9.819c0-2.162-0.04-3.333-0.992-3.868
		c0.198-0.377,0.516-0.595,1.091-0.595c0.952,0,1.805,1.032,2.222,1.825c-0.337,1.15-0.337,3.154-0.376,4.126
		c2.241,0.417,4.463,1.527,4.463,3.312c0,0.674-0.377,1.17-0.873,1.17c-1.17,0-1.488-2.916-3.571-3.452
		c0,3.65,0.179,6.982,0.179,7.518c0,0.813-0.437,1.726-1.111,1.726C229.996,131.403,229.421,131.105,229.064,129.459z"/>
	<path d="M23.676,151.773l1.17-1.369c1.309,0.932,2.479,1.904,3.531,2.875l-1.21,1.448
		C26.076,153.697,24.926,152.726,23.676,151.773z M24.133,162.028c1.229-1.864,2.222-3.848,2.936-5.971l1.706,0.694
		c-0.754,2.44-1.726,4.562-2.976,6.388L24.133,162.028z M24.45,147.548l1.17-1.389c1.329,0.992,2.381,1.845,3.194,2.599l-1.19,1.448
		C26.672,149.313,25.62,148.441,24.45,147.548z M28.417,161.592c2.34-0.516,3.987-1.309,4.959-2.32h-4.463v-1.706h5.316
		c0.04-0.159,0.06-0.337,0.06-0.516v-0.477h-5.158v-1.626h5.158v-0.773h-4.602v-4.523h2.162v-0.932h-2.757v-1.667h2.757v-1.349
		h1.865v1.349h3.273v-1.349h1.884v1.349h2.539v1.667h-2.539v0.932h2.162v4.523h-4.681v0.773h4.919v1.626h-4.919v0.477
		c0,0.119,0.02,0.298,0.04,0.516h5.157v1.706h-4.324c0.853,0.972,2.321,1.745,4.443,2.261l-0.714,1.687
		c-2.301-0.476-4.404-1.904-5.554-3.67c-1.31,1.766-3.69,3.214-6.229,3.67L28.417,161.592z M34.289,152.765v-1.666h-2.738v1.666
		H34.289z M36.987,149.651v-0.932h-3.273v0.932H36.987z M39.109,152.765v-1.666h-2.757v1.666H39.109z"/>
	<path d="M48.359,163.08l-0.06-1.785c1.507,0.06,2.479,0.079,2.916,0.079c0.773,0,0.773,0,0.773-0.714v-2.937h-7.994v-1.765h7.994
		v-1.548H53c0.932-0.714,1.706-1.349,2.341-1.924h-7.736v-1.726h10.375v1.726c-1.091,1.21-2.38,2.38-3.888,3.432v0.04h7.419v1.765
		h-7.419v3.214c0,2.023-0.198,2.222-2.638,2.222C50.719,163.159,49.688,163.14,48.359,163.08z M44.669,147.568h7.022v-1.963h2.123
		v1.963h7.022v4.919h-1.964v-3.233H46.633v3.233h-1.964V147.568z"/>
	<path d="M65.246,160.243c0-0.694,0.099-1.031,0.297-1.289c1.23-0.079,3.134-4.582,3.829-6.309c-1.012,0.298-2.123,0.992-2.539,1.27
		c-0.675,0-1.766-1.229-1.766-2.241c0-0.793,0.417-0.873,0.536-0.933c0.099,0.377,0.297,0.973,1.527,0.973
		c0.575,0,1.785-0.298,2.698-0.536c0.417-1.329,0.556-2.34,0.556-2.737c0-0.873-0.337-1.111-1.052-1.409
		c0.119-0.198,0.417-0.535,0.933-0.535s2.142,0.436,2.142,1.686c0,0.436-0.357,1.25-0.773,2.539
		c0.456-0.119,0.913-0.257,1.369-0.257c1.468,0,2.162,0.912,2.162,3.848c0,4.324-2.261,7.518-4.205,7.518
		c-0.655,0-0.793-0.535-1.091-1.408c-0.396-0.675-0.516-0.873-1.19-1.805c0.952,0.476,1.706,1.11,2.142,1.11
		c1.349,0,2.757-3.551,2.757-5.753c0-1.547-0.238-2.201-1.15-2.201c-0.417,0-0.933,0.198-1.329,0.297
		c-1.131,3.273-3.789,9.779-4.662,9.779C65.98,161.85,65.246,161.434,65.246,160.243z M76.532,154.57
		c0.516-0.119,1.924-0.258,2.083-0.516c-0.397-1.885-1.349-1.706-2.658-3.987c3.114,1.368,4.84,2.301,4.84,4.463
		c0,0.833-0.298,1.904-1.567,1.904C78.992,156.038,79.111,155.502,76.532,154.57z M76.85,148.243
		c0.278-0.08,0.635-0.199,1.051-0.199c1.25,0,2.539,0.793,2.539,1.865c0,0.476-0.218,0.873-0.694,0.873
		C79.092,150.781,78.893,149.83,76.85,148.243z M78.476,146.854c0.218-0.099,0.794-0.218,1.17-0.218c1.131,0,2.42,0.615,2.42,1.587
		c0,0.437-0.278,0.913-0.595,0.913C80.837,149.135,80.44,148.144,78.476,146.854z"/>
	<path d="M85.326,154.709c-0.516,0.873-0.992,1.547-1.428,2.103l-0.833-2.32c1.706-2.381,2.916-5.257,3.57-8.569l1.904,0.337
		c-0.297,1.706-0.714,3.253-1.25,4.661v12.378h-1.964V154.709z M87.984,161.334c1.666-0.416,2.896-0.872,3.65-1.408
		c-0.793-0.674-1.508-1.468-2.103-2.4l1.646-0.952c0.457,0.715,1.012,1.369,1.667,1.944c0.297-0.556,0.516-1.27,0.655-2.143h-4.761
		v-6.248h5.019v-1.091h-5.138v-1.746h5.138v-1.488H95.8v1.488h5.495v1.746H95.8v1.091h4.959v7.398h-1.964v-1.15h-3.213
		c-0.198,1.329-0.555,2.44-1.051,3.312c1.766,0.952,4.027,1.488,6.863,1.607l-0.258,1.766c-3.015-0.1-5.594-0.754-7.756-1.964
		c-0.972,0.853-2.579,1.507-4.761,1.964L87.984,161.334z M93.677,154.809c0.06-0.952,0.08-1.766,0.08-2.421v-0.654h-3.095v3.075
		H93.677z M98.795,154.809v-3.075H95.8v0.654c0,0.952-0.02,1.766-0.079,2.421H98.795z"/>
	<path d="M112.409,159.212c0-1.031,0.099-1.806,0.099-2.479c0-0.238-0.178-0.694-0.753-0.694c-0.119,0-0.437,0.06-0.556,0.119
		c-2.479,2.976-2.995,5.634-3.709,5.634c-0.773,0-1.051-1.012-1.051-1.984c0-0.476,0.198-0.614,0.317-0.813
		c0.496-0.039,1.19-1.17,4.027-4.403c0.833-0.952,2.063-2.202,2.876-2.955c-1.766,0.198-4.066,1.963-5.039,1.963
		c-0.734,0-1.785-0.595-1.785-1.606c0-0.516,0.159-0.873,0.456-1.012c0.099,0.338,0.258,0.773,1.051,0.773
		c1.349,0,4.662-1.17,4.86-1.368c0.159-0.119,0.417-0.198,0.893-0.198c0.615,0,1.805,0.516,1.805,1.428
		c0,0.773-1.091,0.575-3.59,3.273c1.547,0.277,1.667,1.091,1.667,1.805v1.865c0,0.812,0.06,1.805,1.646,1.805
		c2.162,0,1.606-0.654,2.459-0.654c1.23,0,1.706,0.575,1.706,0.932c0,1.131-2.52,1.409-3.491,1.409
		C112.766,162.049,112.409,160.759,112.409,159.212z M111.992,148.262c0-0.773-1.448-1.369-1.547-2.638
		c0.119,0.02,0.496,0.159,0.694,0.298c1.428,1.011,3.729,0.376,3.729,2.479c0,0.654-0.556,0.674-0.813,0.674
		c-0.437,0-0.674-0.179-1.19-0.179c-0.774,0-1.27,0.298-2.103,0.417C111.159,148.897,111.219,148.837,111.992,148.262z"/>
	<path d="M130.208,156.554c0-3.67,2.956-6.129,4.324-6.843c-3.432,0.396-6.249,1.706-7.438,2.5c-0.516,0-2.797-1.012-2.797-2.182
		c0-0.457,0.238-0.774,0.516-0.972c0.238,0.437,0.536,0.793,1.726,0.793c0.674,0,2.4-0.476,4.146-0.873
		c1.369-0.317,2.836-0.496,4.126-0.754c1.19-0.238,1.865-0.674,2.123-1.012c1.865,0.278,2.678,1.17,2.678,1.587
		c0,0.536-0.178,0.793-0.773,0.793c-0.238,0-0.615-0.079-0.793-0.079c-3.095,0-6.149,3.015-6.149,6.249
		c0,2.896,1.17,4.105,2.242,4.105c0.218,0,0.337-0.02,0.496-0.119c1.23,0.14,2.202,0.675,2.202,1.35
		c0,0.396-0.357,0.952-1.944,0.952C132.886,162.049,130.208,160.818,130.208,156.554z"/>
	<path d="M23.775,182.954l1.17-1.369c1.309,0.933,2.479,1.904,3.511,2.876l-1.19,1.448
		C26.176,184.878,25.025,183.906,23.775,182.954z M24.331,193.209c1.21-1.824,2.182-3.809,2.896-5.971l1.746,0.754
		c-0.754,2.381-1.766,4.503-3.015,6.328L24.331,193.209z M24.628,178.729l1.19-1.389c1.329,0.992,2.38,1.845,3.193,2.599
		l-1.19,1.448C26.87,180.494,25.819,179.621,24.628,178.729z M28.199,192.713c1.944-0.218,3.59-0.516,4.939-0.872
		c-1.011-0.575-1.845-1.19-2.44-1.825l1.151-0.635h-2.242v-1.587h10.811v1.587c-0.793,0.933-1.805,1.745-3.035,2.42
		c1.25,0.357,2.777,0.675,4.562,0.912L41.41,194.3c-2.222-0.258-4.305-0.753-6.229-1.507c-1.865,0.694-4.027,1.189-6.467,1.507
		L28.199,192.713z M28.675,183.489h13.25v3.689h-13.25V183.489z M29.687,177.598h11.148v5.316H29.687V177.598z M32.563,185.93v-1.21
		h-1.964v1.21H32.563z M38.831,179.819v-0.694H31.71v0.694H38.831z M38.831,181.645v-0.654H31.71v0.654H38.831z M38.018,189.381
		h-5.356c0.675,0.694,1.547,1.27,2.639,1.726C36.352,190.65,37.264,190.075,38.018,189.381z M36.272,185.93v-1.21h-1.983v1.21
		H36.272z M40.002,185.93v-1.21h-1.984v1.21H40.002z"/>
	<path d="M47.982,181.208h3.769v-1.726h-7.458v-1.726h16.92v1.726h-7.458v1.726h3.769v9.244h-9.542V181.208z M44.768,181.783h1.983
		v9.859h12.001v-9.859h1.984V194.3h-1.984v-0.972H46.752v0.972h-1.983V181.783z M51.751,185.017v-2.261h-1.924v2.261H51.751z
		 M51.751,188.904v-2.459h-1.924v2.459H51.751z M55.678,185.017v-2.261h-1.924v2.261H55.678z M55.678,188.904v-2.459h-1.924v2.459
		H55.678z"/>
	<path d="M63.54,193.209c1.468-2.122,1.983-4.126,1.983-8.529v-7.121H80.48v14.044c0,2.539-0.238,2.797-2.698,2.797
		c-0.278,0-1.151-0.04-2.599-0.1l-0.08-1.705c0.635,0.02,1.488,0.079,1.904,0.099c0.179,0.02,0.337,0.02,0.437,0.02
		c0.972,0,1.012-0.079,1.012-1.011v-3.075h-4.701v5.376h-1.964v-5.376h-4.384c-0.258,2.479-0.952,4.166-2.202,5.911L63.54,193.209z
		 M71.792,187.021v-3.214h-4.245v1.687c0,0.377-0.02,0.893-0.04,1.527H71.792z M71.792,182.22v-2.976h-4.245v2.976H71.792z
		 M78.457,182.22v-2.976h-4.701v2.976H78.457z M78.457,187.021v-3.214h-4.701v3.214H78.457z"/>
	<path d="M95.8,185.989c-0.932-0.794-1.884-1.706-2.856-2.718c-0.932,5.633-3.769,9.343-8.093,11.028l-0.773-1.686
		c2.519-0.972,4.423-2.758,5.713-5.376c-1.151-0.893-2.182-1.666-3.095-2.301l1.131-1.487c1.031,0.714,1.944,1.368,2.717,1.963
		c0.437-1.388,0.694-2.915,0.774-4.582h-3.333c-0.873,2.44-1.944,4.543-3.253,6.309l-1.27-1.468c1.726-2.639,2.936-5.535,3.65-8.709
		l1.865,0.219c-0.119,0.614-0.278,1.229-0.437,1.884h4.702c0,0.813-0.02,1.409-0.04,1.825c0.833,0.933,1.706,1.825,2.599,2.658
		v-6.388h2.063v8.134c1.29,0.991,2.638,1.884,4.007,2.678l-0.833,1.686c-1.21-0.694-2.261-1.368-3.174-2.043v6.863H95.8V185.989z"/>
	<path d="M107.886,194.261l-0.06-1.785c1.507,0.06,2.479,0.079,2.916,0.079c0.773,0,0.773,0,0.773-0.714v-2.937h-7.994v-1.765h7.994
		v-1.548h1.012c0.932-0.714,1.706-1.349,2.341-1.924h-7.736v-1.726h10.375v1.726c-1.091,1.21-2.38,2.38-3.888,3.432v0.04h7.419
		v1.765h-7.419v3.214c0,2.023-0.198,2.222-2.638,2.222C110.247,194.34,109.216,194.32,107.886,194.261z M104.197,178.748h7.022
		v-1.963h2.123v1.963h7.022v4.92H118.4v-3.233H106.16v3.233h-1.963V178.748z"/>
	<path d="M128.344,189.56c0-0.556,0.139-1.23,0.179-1.567c-1.21-0.575-1.726-1.726-1.726-2.718c0-1.15,1.27-2.003,2.559-2.439
		c-1.329-0.654-1.785-1.726-1.785-2.639c0-0.297,0.06-0.635,0.218-1.031c0.277,0.912,1.031,1.885,2.182,1.885
		c0.08-0.417,0.199-1.23,0.199-1.667c0-1.468-0.694-1.349-1.111-1.666c0.218-0.317,0.654-0.516,0.952-0.516
		c0.773,0,2.182,0.972,2.182,2.222c0,0.357-0.277,0.615-0.575,1.746c0.377,0,1.786,0.476,1.786,1.349
		c0,0.556-0.496,0.972-2.321,0.972c-0.119,0.516-0.456,2.281-0.555,2.916c0.913,0,0.972-0.298,1.329-0.298
		c0.278,0,1.726,0.357,1.726,1.23c0,0.833-1.012,0.952-3.333,0.952c-0.04,0.297-0.139,1.031-0.139,1.606
		c0,1.627,0.932,2.658,2.678,2.658c1.766,0,2.896-1.468,2.896-3.828c0-2.52-1.726-4.781-1.845-5.436
		c1.369,0.833,3.59,3.333,3.59,6.03c0,3.214-2.34,4.562-4.761,4.562C129.712,193.884,128.344,191.702,128.344,189.56z
		 M129.415,183.489c-1.15,0.317-1.547,0.854-1.547,1.329c0,0.694,0.198,0.992,0.952,1.329
		C128.978,185.215,129.217,184.164,129.415,183.489z"/>
	<path d="M29.131,220.74c0-0.555,0.139-1.229,0.179-1.566c-1.21-0.575-1.726-1.727-1.726-2.718c0-1.15,1.27-2.004,2.559-2.44
		c-1.329-0.654-1.785-1.726-1.785-2.638c0-0.298,0.06-0.635,0.218-1.031c0.277,0.912,1.031,1.884,2.182,1.884
		c0.08-0.416,0.199-1.229,0.199-1.666c0-1.468-0.694-1.349-1.111-1.666c0.218-0.317,0.654-0.516,0.952-0.516
		c0.773,0,2.182,0.972,2.182,2.222c0,0.356-0.277,0.614-0.575,1.745c0.377,0,1.785,0.477,1.785,1.349
		c0,0.556-0.496,0.973-2.321,0.973c-0.119,0.516-0.456,2.281-0.555,2.916c0.913,0,0.972-0.298,1.329-0.298
		c0.277,0,1.726,0.357,1.726,1.229c0,0.833-1.012,0.952-3.333,0.952c-0.04,0.298-0.139,1.032-0.139,1.607
		c0,1.626,0.932,2.657,2.678,2.657c1.766,0,2.896-1.468,2.896-3.828c0-2.52-1.726-4.78-1.845-5.435
		c1.369,0.833,3.59,3.332,3.59,6.03c0,3.213-2.34,4.562-4.761,4.562C30.5,225.064,29.131,222.883,29.131,220.74z M30.202,214.671
		c-1.15,0.317-1.547,0.853-1.547,1.329c0,0.694,0.198,0.991,0.952,1.329C29.766,216.396,30.004,215.345,30.202,214.671z"/>
	<path d="M50.719,224.47c4.245-0.258,6.269-2.202,6.269-4.384c0-1.547-1.032-2.301-2.42-2.301c-1.507,0-2.539,0.853-3.61,2.162
		c-0.615,0.754-0.675,1.15-1.151,1.15c-0.595,0-1.666-0.516-1.666-1.746c0-1.368,0.674-1.606,1.606-4.919
		c-2.36-0.337-2.856-1.766-2.856-2.182c0-0.219,0.08-0.278,0.159-0.377c0.456,0.833,1.904,1.051,3.094,1.051
		c0.238-1.11,0.397-1.924,0.397-2.539c0-1.487-0.734-1.389-0.933-1.468c0-0.238,0.357-0.476,0.893-0.476
		c1.051,0,2.123,0.872,2.123,1.527c0,0.812-0.536,1.27-0.853,2.776c0.873-0.198,1.845-0.893,1.845-1.368
		c0-0.357-0.417-0.615-0.873-1.052c0.734,0.198,1.051,0.258,1.369,0.258c0.238,0,0.536-0.099,0.655-0.158
		c0.238,0.079,1.17,0.456,1.17,0.991c0,1.389-3.095,2.996-4.622,2.996c-0.575,1.726-0.793,3.174-0.793,3.868
		c1.428-1.31,3.114-1.786,4.364-1.786c1.706,0,4.106,0.933,4.106,3.868c0,2.52-2.658,4.483-5.416,4.483
		C51.929,224.847,51.116,224.728,50.719,224.47z"/>
	<path d="M69.352,224.351c3.432-0.635,7.558-1.666,7.558-5.197c0-1.706-1.111-2.976-3.412-2.976c-3.591,0-4.126,4.384-5.753,4.384
		c-0.734,0-1.071-0.733-1.071-1.328c0-1.171,0.992-1.528,2.479-3.313c1.21-1.468,3.709-4.046,4.741-4.959
		c-0.02-0.02-0.079-0.02-0.099-0.02c-1.17,0-2.718,1.012-3.432,1.389c-0.496,0-1.409-0.992-1.409-1.785
		c0-0.556,0.179-0.933,0.536-1.171c0.199,0.396,0.317,0.794,1.032,0.794c1.23,0,3.471-0.992,4.305-0.992
		c0.496,0.198,0.753,0.615,1.11,1.031c0.317,0.377,0.536,0.715,0.536,0.813c0,0.357-0.357,0.615-0.813,0.754
		c-0.635,0.198-3.194,1.924-4.84,3.868c0.952-0.377,1.587-0.635,2.916-0.635c2.698,0,5.316,1.508,5.316,4.086
		c0,4.364-4.702,5.495-8.252,5.495C70.324,224.589,69.49,224.489,69.352,224.351z"/>
	<path d="M93.082,221.098c0-0.496,0.06-1.587,0.06-2.063c0-1.408-0.297-2.261-1.527-2.261c-1.606,0-2.638,2.003-3.312,3.967
		c-0.615,1.806-0.873,3.591-1.667,3.591c-0.972,0-1.011-0.972-1.17-1.687c0-1.726,5.455-10.652,5.455-12.517
		c0-0.694-0.793-0.853-0.972-0.933c0.218-0.337,0.357-0.614,1.13-0.614c0.774,0,1.964,1.408,1.964,2.281
		c0,0.237-0.278,0.575-0.496,0.872c-0.496,0.675-1.885,2.896-2.896,4.96c0.774-0.675,1.825-1.131,2.718-1.131
		c2.36,0,2.678,1.587,2.678,3.432c0,0.317-0.06,1.27-0.06,1.566c0,1.329,0.258,2.242,1.409,2.242c1.507,0,3.253-1.865,3.908-3.57
		c0.04,0.118,0.079,0.258,0.079,0.436c0,1.488-1.567,4.761-4.403,4.761C93.637,224.43,93.082,222.923,93.082,221.098z"/>
	<path d="M103.76,223.935c3.312-0.992,4.78-2.817,5.038-6.428c-1.606,0.119-3.134,0.198-4.642,0.238l-0.099-1.726
		c1.349-0.06,2.321-0.1,2.916-0.139c0.773-1.408,1.448-2.856,2.003-4.305h-5.157v-1.726h7.399v-1.785h2.123v1.785h7.399v1.726
		h-9.621c-0.575,1.468-1.21,2.856-1.904,4.166c2.38-0.159,4.761-0.357,7.161-0.635c-0.853-1.012-1.527-1.786-1.983-2.262
		l1.646-0.972c1.845,1.983,3.392,3.809,4.642,5.494l-1.587,1.091c-0.476-0.674-0.972-1.27-1.409-1.785
		c-0.436,0.04-1.21,0.119-2.261,0.238v6.109c0,0.615,0.02,0.655,0.635,0.675c0.139,0.02,0.377,0.02,0.714,0.02
		c0.635,0,0.992-0.02,1.21-0.099c0.198-0.06,0.417-0.199,0.496-0.754c0.079-0.556,0.119-1.171,0.178-2.579l1.964,0.198
		c-0.06,1.31-0.099,1.925-0.198,2.698c-0.099,0.793-0.159,1.071-0.417,1.448c-0.238,0.396-0.397,0.456-0.853,0.595
		c-0.476,0.158-0.833,0.158-1.607,0.179c-0.437,0.02-0.754,0.039-0.972,0.039c-0.238,0-0.556-0.02-0.972-0.039
		c-1.984-0.021-2.242-0.238-2.242-1.408v-6.864l-2.499,0.219c-0.317,4.642-2.321,7.221-6.467,8.351L103.76,223.935z"/>
	<path d="M123.682,223.656c3.67-0.595,5.971-1.706,6.963-3.272h-7.022v-1.687h7.439v-1.448h-5.574v-1.587h5.574v-1.349h-5.772v-1.15
		h-1.349v-3.61h7.122v-1.487h2.123v1.487h7.121v3.61h-1.349v1.15h-5.772v1.349h5.574v1.587h-5.574v1.448h7.438v1.687h-7.042
		c0.932,1.468,3.313,2.678,6.982,3.272l-0.674,1.825c-3.392-0.635-6.269-2.222-7.677-4.066c-1.428,1.845-4.324,3.432-7.855,4.066
		L123.682,223.656z M131.061,212.687v-1.447h-5.197v1.447H131.061z M138.381,212.687v-1.447h-5.197v1.447H138.381z"/>
	<path d="M142.87,217.012c0-5.02,4.086-9.105,9.105-9.105c5.019,0,9.104,4.086,9.104,9.105c0,5.019-4.086,9.104-9.104,9.104
		C146.956,226.116,142.87,222.03,142.87,217.012z M160.286,217.012c0-4.583-3.729-8.312-8.311-8.312
		c-4.583,0-8.312,3.729-8.312,8.312c0,4.582,3.729,8.311,8.312,8.311C156.557,225.322,160.286,221.594,160.286,217.012z
		 M149.079,212.29c-0.674,0-1.091,0.337-1.389,0.337c-0.158,0-0.258-0.178-0.258-0.337c0-0.377,0.595-0.912,1.428-0.912
		c1.17,0,2.103,0.714,2.103,1.229c0,0.139-0.02,0.238-0.159,0.238C150.527,212.846,149.991,212.29,149.079,212.29z M147.432,220.146
		c0-1.408,1.091-1.864,1.389-1.864c0.099,0,0.179,0.039,0.179,0.118c0,0.357-0.675,0.694-0.675,1.944
		c0,0.595,0.159,1.052,0.159,1.25s-0.1,0.297-0.258,0.297C147.869,221.871,147.432,221.038,147.432,220.146z M147.69,213.896
		c0-0.416,0.635-0.833,1.329-0.833c0.793,0,1.428,0.694,1.428,1.052c0,0.139-0.099,0.198-0.238,0.198
		c-0.317,0-0.615-0.277-1.131-0.277c-0.476,0-0.833,0.277-1.051,0.277C147.829,214.313,147.69,214.056,147.69,213.896z
		 M149.991,220.82c0-0.199,0.04-0.259,0.159-0.259c0.179,0,0.694,0.159,1.369,0.159c1.21,0,2.123-0.516,2.341-0.516
		c0.099,0,0.139,0.039,0.139,0.119c0,0-0.238,1.507-0.615,2.36c-0.119,0.238-0.496,0.714-1.19,0.714
		C150.844,223.398,150.051,222.01,149.991,220.82z M150.111,218.42c0-0.04,0.02-0.179,0.218-0.179c0.238,0,0.635,0.158,1.329,0.158
		c0.773,0,1.745-0.356,1.745-0.893c0-0.516-0.595-2.082-0.595-3.491c0-2.082,1.468-2.499,2.4-2.499c0.774,0,1.369,0.337,1.369,0.694
		c0,0.238-0.198,0.317-0.535,0.317c-0.179,0-0.417-0.06-0.635-0.06c-1.587,0-2.103,0.734-2.103,1.785
		c0,1.547,0.853,2.698,0.853,3.531c0,1.229-1.606,1.547-2.281,1.547C150.706,219.332,150.111,218.678,150.111,218.42z
		 M153.145,221.236c-0.02-0.04-0.06-0.06-0.119-0.06c-0.238,0-0.734,0.258-1.329,0.258c-0.476,0-0.635-0.179-0.793-0.179
		c-0.02,0-0.04,0-0.04,0.021c0.218,0.654,0.635,0.893,1.052,0.893C152.431,222.169,152.967,221.792,153.145,221.236z
		 M155.189,214.115c-0.377,0-0.615,0.198-0.873,0.198c-0.159,0-0.218-0.06-0.218-0.198c0-0.277,0.476-0.893,1.27-0.893
		c0.575,0,1.19,0.298,1.19,0.833c0,0.198-0.099,0.396-0.337,0.396C155.863,214.452,155.665,214.115,155.189,214.115z
		 M155.327,221.236c0-0.298,0.08-0.833,0.08-1.289c0-1.27-0.694-1.21-0.694-1.389c0-0.079,0.079-0.179,0.238-0.179
		c0.793,0,1.409,1.111,1.409,1.964c0,0.635-0.278,1.448-0.655,1.448C155.546,221.792,155.327,221.613,155.327,221.236z"/>
	<path d="M169.675,223.537c-3.471-3.709-5.217-6.902-5.217-9.641c0-2.638,1.805-4.562,3.888-4.562c1.448,0,2.619,0.733,3.471,2.201
		c0.853-1.468,2.023-2.201,3.472-2.201c2.083,0,3.888,1.924,3.888,4.562c0,2.738-1.746,5.932-5.217,9.641l-2.143,2.302
		L169.675,223.537z M173.444,221.713c2.757-2.976,4.027-5.555,4.027-7.776c0-2.202-1.131-2.896-2.361-2.896
		c-1.012,0-2.003,0.596-2.241,1.727c-0.159,0.694-0.516,1.051-1.052,1.051c-0.535,0-0.893-0.356-1.051-1.051
		c-0.238-1.131-1.229-1.727-2.241-1.727c-1.23,0-2.361,0.694-2.361,2.896c0,2.222,1.27,4.801,4.027,7.776l1.626,1.785
		L173.444,221.713z"/>
</g>
<g>
	<path d="M455.001,40.547c0.499-0.453,6.757-1.791,6.757-6.916c0-3.106-2.494-4.127-3.491-4.172c-0.499,2.2-1.701,4.444-2.926,6.032
		c0.159,0.612,0.228,1.088,0.228,1.451c0,0.748-0.295,1.02-0.885,1.02c-0.453,0-0.816-0.385-1.202-1.043
		c-0.771,0.749-2.426,1.882-3.968,1.882c-1.021,0-1.791-0.431-1.791-1.724c0-3.424,2.335-6.19,5.532-7.845l0.25-1.882
		c-0.386,0.068-0.953,0.091-1.293,0.091c-1.52,0-2.607-0.771-2.607-1.905c0-0.159,0.022-0.25,0.068-0.431
		c0.181,0.204,0.93,0.839,2.29,0.839c0.453,0,1.134-0.045,1.859-0.182c0.181-0.793,0.271-1.542,0.271-1.973
		c0-1.701-0.771-1.383-1.065-1.678c0.204-0.295,0.477-0.612,1.179-0.612c1.021,0,2.313,0.975,2.313,1.836
		c0,0.612-0.363,0.499-0.726,1.996c1.995-0.363,2.268-1.043,2.607-1.36c1.201,0,2.244,0.499,2.244,1.02
		c0,1.021-2.788,1.792-5.26,2.131c-0.091,0.454-0.137,0.975-0.227,1.497c0.748-0.181,1.428-0.317,2.018-0.34
		c0.091-0.386,0.068-0.612,0.363-0.703c0.453,0.159,0.748,0.499,0.839,0.703c2.517,0.136,5.487,2.086,5.487,5.601
		c0,5.147-6.281,6.825-7.324,6.825C456.157,40.706,455.137,40.683,455.001,40.547z M452.984,35.105
		c-0.068-0.68-0.114-1.292-0.114-2.018c0-0.816,0.046-1.474,0.137-2.29c-1.655,0.975-3.333,3.243-3.333,5.306
		c0,0.567,0.158,0.771,0.566,0.771C451.033,36.874,452.281,35.876,452.984,35.105z M456.974,29.459
		c-0.59,0.023-1.587,0.227-1.928,0.431c-0.113,0.793-0.136,1.587-0.136,2.403c0,0.386,0,0.703,0.022,1.088
		C455.772,32.271,456.362,30.979,456.974,29.459z"/>
	<path d="M454.729,61.887c3.47-1.315,7.823-3.175,7.823-8.571c0-3.832-2.676-5.873-6.281-5.873c0.386,0.567,0.681,1.224,0.681,1.927
		c0,3.764-3.424,10.657-7.074,10.657c-1.18,0-1.95-1.021-2.631-2.222c-0.635-1.134-0.657-1.61-0.657-2.789
		c0-4.308,4.172-8.798,9.886-8.798c4.988,0,8.345,2.971,8.345,7.914c0,5.578-6.712,7.845-8.866,7.845
		C455.636,61.977,455.024,61.977,454.729,61.887z M455.569,48.373c0-0.408-0.137-0.726-0.182-0.884
		c-2.971,0.136-6.894,3.446-6.894,7.188c0,1.474,0.544,2.948,1.52,2.948C451.442,57.624,455.569,52.953,455.569,48.373z"/>
	<path d="M455.274,84.201c0-0.726,0.204-2.63,0.204-5.556c0-0.748-0.113-2.245-0.25-2.562c-2.426,1.927-5.396,3.243-6.575,3.243
		c-0.272,0-0.59-0.068-0.952-0.204c5.26-2.608,10.203-8.526,10.203-10.09c0-0.317-0.113-0.476-0.499-0.93
		c0.34-0.34,0.567-0.499,1.021-0.499c1.497,0,2.426,1.882,2.426,2.404c-0.498,0.657-2.131,2.675-4.217,4.83
		c0.566,0.227,1.156,0.227,1.542,1.111c-0.159,0.59-0.386,0.454-0.386,4.603c0,1.633,0.182,3.265,0.182,3.991
		c0,0.862-0.431,1.564-1.021,1.564C456.475,86.105,455.614,85.448,455.274,84.201z"/>
	<path d="M454.253,105.79c0.408-2.313,0.589-7.166,0.589-10.771c0-5.079-0.544-3.515-1.201-4.648c0.453-0.476,0.839-0.68,1.315-0.68
		c1.179,0,2.721,1.632,2.721,2.426c-0.681,1.61-0.703,5.011-0.703,8.911c0.022,4.671,0.204,4.92,0.204,5.623
		c0,1.814-0.657,2.222-1.225,2.222C455.07,108.874,454.48,107.15,454.253,105.79z"/>
	<path d="M445.614,125.519c2.608-1.361,6.395-5.51,6.395-7.075c0-0.431-0.431-0.68-0.59-0.771c0.204-0.227,0.454-0.34,0.885-0.34
		c0.839,0,2.562,1.701,2.562,2.358c0,0.113-0.091,0.204-0.227,0.25c-1.202,2.313-5.442,5.714-8.163,5.714
		C446.249,125.655,445.818,125.655,445.614,125.519z M457.473,117.651c0.408-0.068,0.566-0.091,0.816-0.091
		c2.357,0,6.462,2.97,6.462,5.578c0,1.156-0.59,2.199-1.383,2.199C460.965,125.337,462.847,121.528,457.473,117.651z"/>
	<path d="M453.051,151.574c0.227-2.154,0.386-4.762,0.386-11.224c0-2.471-0.046-3.809-1.134-4.421c0.227-0.431,0.59-0.68,1.247-0.68
		c1.089,0,2.063,1.179,2.54,2.086c-0.386,1.315-0.386,3.605-0.432,4.716c2.562,0.476,5.103,1.746,5.103,3.787
		c0,0.771-0.432,1.338-0.998,1.338c-1.338,0-1.7-3.333-4.081-3.945c0,4.172,0.204,7.981,0.204,8.593c0,0.93-0.499,1.973-1.271,1.973
		C454.117,153.796,453.459,153.456,453.051,151.574z"/>
	<path d="M454.253,173.821c0.408-2.313,0.589-7.165,0.589-10.771c0-5.079-0.544-3.515-1.201-4.648
		c0.453-0.477,0.839-0.681,1.315-0.681c1.179,0,2.721,1.633,2.721,2.427c-0.681,1.609-0.703,5.011-0.703,8.911
		c0.022,4.671,0.204,4.92,0.204,5.623c0,1.814-0.657,2.223-1.225,2.223C455.07,176.905,454.48,175.182,454.253,173.821z"/>
	<path d="M450.648,199.129c3.266-2.154,8.548-5.578,8.685-12.131c-0.022-0.022-0.159-0.022-0.317-0.022
		c-1.293,0-6.689,0.59-7.393,0.93c-0.249,3.945,0.363,5.532-1.201,5.532c-0.612,0-0.885-0.839-1.247-1.655
		c0.045-0.34,0.067-2.789,0.067-3.582c0-1.271-0.045-1.973-1.224-2.585c0-0.272,0.748-0.59,1.201-0.59
		c0.93,0,1.905,0.681,2.199,1.043c0.998-0.136,2.154-0.227,2.857-0.317c0-0.022,0.068-1.564,0.068-2.018
		c0-0.862-0.317-1.202-1.202-1.655c0-0.228,0.567-0.771,1.27-0.771c0.998,0,2.109,0.907,2.518,1.701
		c-0.228,0.635-0.454,1.745-0.454,2.562c3.197-0.385,3.062-0.544,3.765-0.884c0.476,0.067,2.222,1.496,2.222,2.177
		c0,0.362-0.227,0.204-0.544,0.861c-1.156,7.551-7.551,11.519-10.702,11.519C451.124,199.242,450.67,199.197,450.648,199.129z
		 M460.125,183.234c0.318-0.091,0.726-0.227,1.202-0.227c1.429,0,2.902,0.906,2.902,2.131c0,0.544-0.249,0.998-0.794,0.998
		C462.688,186.137,462.461,185.048,460.125,183.234z M461.985,181.646c0.25-0.113,0.907-0.249,1.338-0.249
		c1.293,0,2.767,0.703,2.767,1.814c0,0.498-0.317,1.043-0.681,1.043C464.683,184.255,464.23,183.121,461.985,181.646z"/>
	<path d="M458.448,219.016c-0.839-1.405-1.769-2.131-1.995-2.403c0.272,0,1.52,0.204,2.154,0.657
		c0.136-0.181,0.182-1.723,0.182-4.217c-1.996,2.562-5.261,4.013-6.554,4.013c-0.34,0-0.612-0.067-0.771-0.204
		c3.764-2.086,5.714-4.059,6.87-6.054c-2.063,0.227-3.764,0.657-4.081,0.726c-0.317-0.113-1.724-0.839-1.724-1.746
		c0-0.34,0.137-0.839,0.408-0.839c0.204,0.363,0.771,0.681,1.587,0.681c1.18,0,2.698-0.159,4.218-0.341
		c0-1.043,0.022-1.904,0.022-2.335c0-0.453-0.362-0.885-0.861-1.202c0.159-0.385,0.499-0.612,0.839-0.612
		c0.748,0,2.063,1.225,2.063,1.384c0,0.249-0.362,0.793-0.386,2.562c1.724-0.181,2.132-0.317,2.404-0.521
		c0.385,0,1.791,0.521,1.791,1.338c0,0.363-0.272,0.545-0.816,0.545c-0.907,0-2.54,0-3.355,0.113l0.022,7.188
		c0,0.952-1.111,1.859-1.542,1.859C458.652,219.605,458.516,219.242,458.448,219.016z"/>
	<path d="M454.729,243.305c3.47-1.315,7.823-3.175,7.823-8.571c0-3.832-2.676-5.873-6.281-5.873
		c0.386,0.567,0.681,1.225,0.681,1.928c0,3.764-3.424,10.657-7.074,10.657c-1.18,0-1.95-1.021-2.631-2.223
		c-0.635-1.134-0.657-1.609-0.657-2.789c0-4.308,4.172-8.797,9.886-8.797c4.988,0,8.345,2.97,8.345,7.913
		c0,5.578-6.712,7.846-8.866,7.846C455.636,243.396,455.024,243.396,454.729,243.305z M455.569,229.79
		c0-0.408-0.137-0.726-0.182-0.884c-2.971,0.136-6.894,3.446-6.894,7.188c0,1.474,0.544,2.948,1.52,2.948
		C451.442,239.042,455.569,234.371,455.569,229.79z"/>
	<path d="M428.798,35.785c-0.295,0.113-0.544,0.113-0.952,0.113c-1.293,0-1.995-1.315-2.019-2.63
		c-0.022-1.021-0.249-1.723-0.249-2.381c0-0.476,0.453-2.109,2.222-2.109c0.363,0,0.681,0.068,0.907,0.159l-0.022-1.746
		c-2.472,0.385-5.17,1.292-6.281,1.995c-1.224,0-2.812-1.497-2.812-2.245c0-0.408,0.227-0.884,0.544-1.134
		c0.386,0.612,0.84,0.975,1.542,0.975c1.225,0,3.741-0.658,6.984-1.156c0.022-0.408,0.022-1.179,0.022-1.497
		c0-1.905-0.975-2.154-1.633-2.335c0.159-0.386,0.59-0.907,1.384-0.907c0.748,0,2.539,0.975,2.539,1.927
		c0,0.521-0.272,0.454-0.34,2.54c1.746-0.159,4.149-0.227,4.421-0.726c0.998,0.091,2.404,0.839,2.404,1.95
		c0,0.34-0.137,0.589-0.59,0.589c-0.635,0-1.904-0.431-3.47-0.431c-1.247,0-2.335,0.091-2.812,0.159
		c-0.045,0.408-0.067,1.021-0.067,1.678l0.022,1.383c0.431,0.839,0.612,1.973,0.612,3.129c0,5.329-4.739,7.959-6.576,7.959
		C424.944,40.229,427.846,39.322,428.798,35.785z M428.911,32.271c0-0.794-0.068-1.383-0.068-1.52
		c-0.294-0.431-0.702-0.635-1.02-0.635c-0.703,0-0.998,0.726-0.998,1.519c0,1.134,0.362,2.404,1.202,2.404
		C428.73,34.039,428.911,33.268,428.911,32.271z"/>
	<path d="M422.654,59.052c0-2.698,2.88-3.81,4.942-3.81c2.063,0,3.062,0.68,3.447,0.68c0.045,0,0.249-0.045,0.249-0.181
		c0-0.408-0.657-1.474-1.156-2.222c-1.043,0.25-2.086,0.363-3.197,0.363c-2.403,0-3.923-1.134-3.923-2.245
		c0-0.363,0.091-0.771,0.363-0.998c0.271,0.771,1.292,1.406,2.902,1.406c1.11,0,2.131-0.113,2.947-0.34
		c-0.362-0.703-0.726-1.36-1.065-1.973c-0.657,0.182-1.633,0.295-2.336,0.295c-1.247,0-2.108-0.749-2.108-1.61
		c0-0.227,0.091-0.499,0.249-0.771c0.454,0.454,0.521,0.771,1.497,0.771c0.476,0,1.179-0.091,1.882-0.272
		c-1.088-2.245-1.429-2.675-2.177-2.675c-0.204,0-0.521-0.068-0.771-0.272c0.158-0.318,0.249-1.043,1.678-1.043
		c0.793,0,1.633,0.295,1.769,0.635c0.431,1.088,0.408,1.406,1.021,2.857c0.566-0.25,0.861-0.454,0.884-0.907
		c0.59,0,2.199,0.295,2.199,0.93c0,0.612-0.815,1.157-2.381,1.633c0.295,0.657,0.681,1.338,1.044,1.927
		c0.566-0.182,1.11-0.521,1.11-0.771c0-0.363-0.703-0.748-1.247-1.156c1.406,0.294,1.769,0.34,2.653,0.34
		c0.816,0,1.201,0.454,1.201,1.066c0,1.36-1.769,1.927-2.494,2.312l1.043,1.701c0.521,0.839,0.794,1.451,0.794,2.2
		c0,0.793-0.249,1.791-1.225,1.791c-1.36,0-1.882-2.29-5.237-2.29c-1.701,0-2.744,0.884-2.744,2.086
		c0,1.474,1.928,2.109,3.401,2.109c1.179,0,1.882-0.295,2.086-0.521c0.748,0,2.358,0.567,2.358,1.451s-2.132,1.225-3.401,1.225
		C424.467,62.771,422.654,60.775,422.654,59.052z"/>
	<path d="M424.172,81.23c0-1.542,1.021-3.038,2.154-4.081c-0.566-0.953-0.771-2.495-0.771-3.673c0-1.746,0.385-3.447,0.385-4.376
		c0-1.36-0.861-1.497-1.201-1.678c0.158-0.499,0.726-0.794,1.292-0.794c0.816,0,2.518,1.179,2.518,2.222
		c0,0.318-1.043,1.542-1.043,5.419c0,0.589,0.045,1.315,0.204,1.746c3.083-2.086,3.378-2.585,3.378-3.152
		c0.182-0.295,0.544-0.363,0.839-0.363c0.477,0,2.109,0.703,2.109,1.814c0,0.816-1.588,1.043-3.969,2.312
		c-2.153,1.157-4.24,2.834-4.24,4.603c0,1.474,1.225,2.131,2.698,2.131c1.542,0,2.722-0.204,3.243-0.68
		c0.227-0.113,0.544-0.227,1.043-0.227s1.791,0.748,1.791,1.474c0,0.884-2.607,1.315-5.306,1.315
		C426.009,85.244,424.172,83.748,424.172,81.23z"/>
	<path d="M422.903,104.951c-0.182,0.227-0.362,0.68-0.975,0.68c-0.93,0-1.859-1.36-1.859-2.177c0-0.521,0.067-0.998,0.34-1.179
		c0.272,0.385,0.771,0.68,1.315,0.68c0.793,0,2.335-1.156,3.719-2.109l0.045-4.172c-0.794,0.227-1.292,0.249-1.859,0.249
		c-1.678,0-2.494-0.839-2.494-1.564c0-0.567,0.113-0.861,0.34-1.065c0.363,0.476,0.204,0.861,1.61,0.861
		c0.68,0,1.383-0.045,2.358-0.408v-3.31c0-0.771-1.157-0.658-1.429-1.043c0.158-0.272,0.499-0.907,1.338-0.907
		c1.247,0,2.381,0.998,2.381,1.723c0,0.363-0.295,0.749-0.386,2.857c0.521-0.204,1.225-0.952,1.225-1.292
		c0.067-0.045,0.271-0.045,0.431-0.045c0.59,0,1.7,0.294,1.7,1.088c0,1.133-2.743,2.199-3.446,2.403
		c-0.045,1.247-0.158,2.721-0.158,3.809c1.859-1.133,3.537-2.041,5.532-2.041c2.245,0,4.014,1.633,4.014,4.059
		c0,2.608-2.041,4.694-4.943,4.694c-2.245,0-2.993-1.497-2.993-2.653c0-0.703,0.272-1.837,0.635-2.29
		c0.091,0.294,0.091,1.315,0.091,1.61c0,1.292,0.998,1.836,1.882,1.836c1.678,0,3.197-1.678,3.197-3.537
		c0-1.338-0.884-2.313-2.403-2.313c-1.156,0-2.381,0.521-4.897,2.335c0,1.564,0.091,2.358,0.091,3.174
		c0,1.066-0.272,1.882-1.588,2.313c-0.271,0.091-0.499,0.136-0.68,0.136C423.719,107.354,424.853,105.269,422.903,104.951z
		 M425.533,103.432c0-0.159,0-0.431-0.046-0.658c-0.544,0.431-1.225,1.021-1.882,1.61c0.227,0.182,0.68,0.431,1.088,0.431
		C425.125,104.815,425.533,104.588,425.533,103.432z M435.781,96.153c-0.611-0.521-1.224-0.839-2.222-0.839
		c-0.952,0-0.771,0.136-2.019,0.408c0.658-0.839,2.019-1.859,3.583-1.859c1.27,0,3.062,0.749,3.062,2.154
		c0,0.726-0.499,1.066-0.953,1.111c-0.408-0.113-0.385-0.159-0.906-0.159c-0.408,0-0.885,0.159-1.564,0.272
		C435.124,96.901,435.577,96.471,435.781,96.153z"/>
	<path d="M428.957,127.242c0.271-0.227,1.632-0.431,2.357-0.612c1.678-0.363,5.329-1.701,5.329-4.897
		c0-1.429-1.043-2.812-3.243-2.812c-2.788,0-6.575,2.63-7.301,3.265c-1.043,0-2.494-1.292-2.494-2.086
		c0-0.748,0.136-0.952,0.477-1.134c0.203,0.386,0.726,0.862,1.02,0.862c1.497,0,5.261-2.177,8.48-2.177
		c2.403,0,4.808,1.542,4.808,4.24c0,3.174-2.767,5.555-8.231,5.555C429.705,127.446,429.138,127.333,428.957,127.242z"/>
	<path d="M421.066,151.121c0-0.272,0.091-0.884,0.204-1.202c1.066-0.793,2.427-5.487,2.722-7.8c-0.545,0.023-0.953,0.068-1.36,0.068
		c-1.202,0-2.381-0.567-2.381-1.927c0.294,0.068,1.156,0.34,1.949,0.34c0.635,0,1.451-0.136,2.086-0.408
		c0.114-0.771,0.182-1.836,0.182-2.154c0-1.633-0.726-1.973-1.542-2.109c0.295-0.499,0.885-0.862,1.429-0.862
		c0.59,0,2.177,0.998,2.268,1.792c-0.113,0.272-0.317,1.678-0.477,2.721c1.202-0.567,1.497-1.043,1.497-1.587
		c0-0.454-0.657-0.59-0.93-1.111c0.34,0.045,0.726,0.25,1.134,0.25c0.271,0,0.703-0.181,0.907-0.272
		c0.839,0.159,1.791,0.499,1.791,1.315c0,1.27-2.698,3.016-4.671,3.628c-1.791,10.544-2.381,11.428-3.47,11.428
		C421.542,153.229,421.066,152.005,421.066,151.121z M429.184,149.33c0-1.021,0.408-1.746,0.975-2.426
		c-0.045,0.544-0.113,1.338-0.113,1.61c0,1.224,1.882,1.905,3.401,1.905c0.657,0,1.134-0.045,1.587-0.295
		c1.065,0,2.29,0.748,2.29,1.269c0,1.202-2.04,1.315-3.537,1.315C431.02,152.708,429.184,151.393,429.184,149.33z M434.58,141.779
		c-0.227-0.227-1.065-0.386-2.109-0.386c-0.726,0-2.29,0.363-2.63,0.363c0.861-1.111,2.857-1.882,4.671-1.882
		c1.678,0,2.834,0.612,2.834,1.633c0,1.133-3.22,1.088-5.282,1.973C432.494,142.754,434.172,141.96,434.58,141.779z"/>
	<path d="M418.254,175.839c1.225-2.086,1.564-3.945,1.564-9.75v-8.141h17.029c0,10.839,0.136,16.281,0.408,16.281
		c0.067,0,0.113-0.204,0.158-0.59c0.046-0.386,0.113-1.338,0.204-2.834l1.769,0.566c-0.091,1.564-0.249,2.812-0.431,3.719
		c-0.453,1.769-0.952,2.199-1.837,2.199c-1.201,0-1.587-0.022-1.995-2.517c-0.227-1.225-0.362-2.925-0.408-5.102
		c-0.045-2.177-0.068-5.465-0.068-9.864h-12.629v7.211c0,5.714-0.499,8.004-1.973,10.34L418.254,175.839z M432.268,175.317
		c-3.447,0.544-6.78,0.907-10.045,1.065l-0.068-1.949c1.52-0.068,3.22-0.159,5.057-0.363v-3.628h-2.223v1.043h-2.086v-7.21h4.309
		v-1.633c-0.907,0.068-2.313,0.113-4.218,0.182l-0.159-1.792c3.311-0.091,6.849-0.34,10.59-0.703l0.271,1.792
		c-0.861,0.091-2.29,0.227-4.285,0.386v1.769h4.331v6.167h-4.331v3.356l2.108-0.272c-0.249-0.612-0.521-1.225-0.793-1.882
		l1.995-0.612c1.043,2.358,1.791,4.127,2.245,5.396l-2.041,0.612L432.268,175.317z M427.211,168.674v-2.63h-2.223v2.63H427.211z
		 M431.632,168.674v-2.63h-2.222v2.63H431.632z"/>
	<path d="M434.58,184.776c-0.635-1.338-2.88-2.971-3.311-4.399c1.451,0,6.417,1.18,6.417,4.149c0,0.93-0.499,2.086-1.52,2.086
		C435.397,186.612,435.011,185.638,434.58,184.776z"/>
	<path d="M392.096,39.254c2.721-0.227,5.057-0.544,7.006-0.998c-0.952-0.476-1.836-0.975-2.607-1.519l0.771-0.998h-0.023
		c-1.383,0.816-2.856,1.496-4.421,2.018l-0.907-1.792c2.222-0.703,4.172-1.61,5.827-2.698h-4.081v-8.48h6.19l0.181-0.453
		l0.137-0.431h-7.937v-1.905h19.114v1.905h-8.707c-0.067,0.204-0.158,0.499-0.317,0.884h7.597v8.48h-9.41
		c-0.227,0.25-0.544,0.544-0.907,0.816h9.274v1.655c-1.089,0.93-2.427,1.769-4.06,2.517c1.928,0.454,4.149,0.794,6.667,0.998
		l-0.521,1.928c-3.243-0.272-6.235-0.862-9.048-1.814c-2.652,0.861-5.759,1.451-9.296,1.814L392.096,39.254z M407.514,27.282v-0.884
		h-11.45v0.884H407.514z M407.514,29.573v-0.862h-11.45v0.862H407.514z M407.514,31.885v-0.884h-11.45v0.884H407.514z M405.7,35.74
		h-7.46c1.134,0.657,2.381,1.224,3.764,1.7C403.388,36.964,404.635,36.42,405.7,35.74z"/>
	<path d="M399.601,56.195c0-4.195,3.379-7.006,4.943-7.823c-3.923,0.454-7.143,1.95-8.503,2.857c-0.59,0-3.197-1.156-3.197-2.494
		c0-0.521,0.272-0.884,0.59-1.111c0.271,0.499,0.612,0.907,1.973,0.907c0.771,0,2.743-0.544,4.738-0.998
		c1.564-0.363,3.243-0.567,4.717-0.862c1.36-0.272,2.131-0.771,2.426-1.156c2.132,0.317,3.062,1.338,3.062,1.814
		c0,0.612-0.204,0.907-0.885,0.907c-0.271,0-0.702-0.091-0.906-0.091c-3.538,0-7.029,3.447-7.029,7.143
		c0,3.311,1.338,4.694,2.562,4.694c0.25,0,0.386-0.023,0.567-0.136c1.405,0.159,2.517,0.771,2.517,1.542
		c0,0.454-0.408,1.088-2.222,1.088C402.662,62.476,399.601,61.07,399.601,56.195z M404.544,52.295
		c0.317-0.09,0.726-0.227,1.201-0.227c1.429,0,2.902,0.907,2.902,2.131c0,0.544-0.249,0.998-0.793,0.998
		C407.107,55.197,406.879,54.109,404.544,52.295z M406.404,50.708c0.249-0.113,0.907-0.25,1.338-0.25
		c1.292,0,2.766,0.703,2.766,1.814c0,0.499-0.317,1.043-0.68,1.043C409.102,53.315,408.648,52.182,406.404,50.708z"/>
	<path d="M397.47,80.958c0-0.635,0.158-1.406,0.204-1.792c-1.384-0.657-1.973-1.973-1.973-3.106c0-1.315,1.451-2.291,2.925-2.789
		c-1.52-0.749-2.041-1.973-2.041-3.016c0-0.34,0.068-0.726,0.249-1.179c0.318,1.043,1.18,2.154,2.495,2.154
		c0.09-0.476,0.227-1.406,0.227-1.904c0-1.678-0.794-1.542-1.271-1.905c0.25-0.363,0.749-0.59,1.089-0.59
		c0.884,0,2.494,1.111,2.494,2.54c0,0.408-0.317,0.703-0.657,1.996c0.431,0,2.04,0.544,2.04,1.542c0,0.635-0.566,1.111-2.652,1.111
		c-0.137,0.59-0.521,2.607-0.635,3.333c1.043,0,1.11-0.34,1.519-0.34c0.317,0,1.973,0.408,1.973,1.406
		c0,0.952-1.156,1.088-3.809,1.088c-0.046,0.34-0.159,1.179-0.159,1.836c0,1.859,1.065,3.039,3.062,3.039
		c2.018,0,3.311-1.678,3.311-4.376c0-2.88-1.973-5.465-2.109-6.213c1.564,0.952,4.104,3.809,4.104,6.893
		c0,3.673-2.676,5.215-5.442,5.215C399.034,85.901,397.47,83.407,397.47,80.958z M398.694,74.02
		c-1.314,0.363-1.769,0.975-1.769,1.519c0,0.794,0.228,1.134,1.089,1.52C398.196,75.992,398.467,74.791,398.694,74.02z"/>
	<path d="M391.302,107.377c1.134-2.54,1.655-5.329,1.655-10.067v-6.53h8.163v-1.837h2.426v1.837h7.914v1.905h-1.883l0.454,1.632
		c-1.27,0.295-2.744,0.521-4.422,0.726c0.022,1.021,0.091,1.927,0.204,2.789h4.897v1.882h-4.603
		c0.317,1.724,0.771,3.106,1.338,4.149c0.544,1.021,1.065,1.565,1.564,1.565c0.362,0,0.681-0.975,0.884-2.88l1.996,0.748
		c-0.386,2.971-1.202,4.444-2.494,4.444c-0.272,0-0.567-0.022-0.816-0.091v0.862h-12.925v-1.927h10.906
		c-1.428-1.315-2.381-3.605-2.856-6.871h-4.535v3.651c1.859-0.34,3.355-0.68,4.489-0.953l0.341,1.792
		c-2.88,0.726-5.691,1.247-8.48,1.542l-0.272-1.792l1.61-0.227v-9.954h0.181c4.377,0,8.345-0.363,11.882-1.088h-13.718v6.235
		c0,4.263-0.726,7.709-2.2,10.362L391.302,107.377z M403.501,97.831c-0.068-0.793-0.113-1.655-0.137-2.54
		c-1.201,0.091-2.584,0.159-4.194,0.204v2.335H403.501z"/>
	<path d="M394.046,124.227c0-3.832,1.383-6.803,1.383-8.639c0-0.884-0.317-1.338-0.885-1.542c0.182-0.34,0.499-0.521,0.998-0.521
		c1.406,0,2.222,1.52,2.222,2.971c0,2.267-1.904,2.857-1.904,7.165c0,0.589,0.068,1.247,0.136,1.428c0.341,0,0.93-2.744,2.313-4.398
		c-0.023,0.998-1.089,2.698-1.089,5.306c0,1.428,0.408,2.335,0.408,2.993c0,0.612-0.566,1.111-1.021,1.111
		C394.998,130.099,394.046,127.809,394.046,124.227z M400.939,125.7c0-0.612,0.249-1.791,0.681-2.403
		c0.136,2.312,0.385,3.832,3.968,3.832c1.315,0,2.063-0.476,2.335-0.884c1.066,0,2.087,0.385,2.087,1.111
		c0,0.658-1.066,1.882-4.06,1.882C402.639,129.237,400.939,127.786,400.939,125.7z M401.279,115.882
		c0.408,0.408,1.679,0.589,2.926,0.589c1.36,0,2.607-0.454,3.038-1.179c1.065,0.068,2.222,0.363,2.222,1.134
		c0,1.315-2.562,1.746-3.877,1.746C403.16,118.172,401.279,117.696,401.279,115.882z"/>
	<path d="M395.837,140.917l-0.794,0.499c-1.021-1.587-2.154-3.174-3.469-4.739l1.836-1.202c1.247,1.474,2.358,2.993,3.311,4.535
		c2.358-1.61,4.422-3.401,6.213-5.352h2.336c2.018,2.177,4.376,4.104,7.029,5.805l-0.839,1.928c-0.84-0.499-1.655-1.066-2.518-1.701
		v1.179h-9.682v-1.066c-0.907,0.703-1.814,1.36-2.698,1.905L395.837,140.917z M401.687,146.087h-4.444
		c-0.952,3.039-2.199,5.668-3.718,7.89l-1.95-1.179c1.519-2.312,2.766-4.807,3.673-7.573l1.701,0.635v-1.792h14.126v5.668
		c0,0.793-0.022,1.361-0.046,1.746c-0.09,0.726-0.498,1.271-1.11,1.36c-0.272,0.046-0.749,0.068-1.384,0.068
		c-0.544,0-1.428-0.045-2.675-0.113l-0.114-2.018c1.134,0.067,1.928,0.113,2.381,0.113c0.703,0,0.703,0,0.703-1.157v-3.65h-4.807
		v8.502h-2.336V146.087z M407.9,139.897c-1.36-1.111-2.63-2.291-3.81-3.583c-1.11,1.27-2.312,2.449-3.673,3.583H407.9z"/>
	<path d="M394.136,173.799c0-0.272,0.091-0.885,0.204-1.202c1.066-0.794,2.427-5.487,2.722-7.8c-0.545,0.022-0.953,0.067-1.36,0.067
		c-1.202,0-2.381-0.566-2.381-1.927c0.294,0.067,1.156,0.34,1.949,0.34c0.635,0,1.451-0.136,2.086-0.408
		c0.114-0.771,0.182-1.837,0.182-2.154c0-1.633-0.726-1.973-1.542-2.108c0.295-0.499,0.885-0.862,1.429-0.862
		c0.59,0,2.177,0.998,2.268,1.792c-0.113,0.271-0.317,1.678-0.477,2.721c1.202-0.566,1.497-1.043,1.497-1.587
		c0-0.454-0.657-0.59-0.93-1.111c0.34,0.045,0.726,0.249,1.134,0.249c0.271,0,0.703-0.181,0.907-0.271
		c0.839,0.158,1.791,0.499,1.791,1.314c0,1.271-2.698,3.017-4.671,3.629c-1.791,10.543-2.381,11.428-3.47,11.428
		C394.613,175.907,394.136,174.683,394.136,173.799z M402.254,172.007c0-1.021,0.408-1.746,0.975-2.426
		c-0.045,0.544-0.113,1.338-0.113,1.609c0,1.225,1.882,1.905,3.401,1.905c0.657,0,1.134-0.046,1.587-0.295
		c1.065,0,2.29,0.748,2.29,1.27c0,1.202-2.04,1.315-3.537,1.315C404.09,175.386,402.254,174.07,402.254,172.007z M407.651,164.456
		c-0.227-0.227-1.065-0.385-2.109-0.385c-0.726,0-2.29,0.362-2.63,0.362c0.861-1.111,2.857-1.882,4.671-1.882
		c1.678,0,2.834,0.612,2.834,1.633c0,1.134-3.22,1.088-5.282,1.973C405.565,165.432,407.242,164.638,407.651,164.456z"/>
	<path d="M396.086,194.413c0-2.177,2.358-4.014,5.352-4.014c1.609,0,2.902,0.317,3.355,0.612c0.046-0.022,0.068-0.113,0.068-0.227
		c0-0.749-1.497-2.926-2.54-4.127c-0.839,0.431-1.949,0.816-3.129,0.816c-2.268,0-3.378-1.542-3.378-2.54
		c0.204,0.091,0.748,0.816,2.652,0.816c1.156,0,2.063-0.34,2.676-0.68c-1.225-1.679-1.837-2.313-2.381-2.585
		c-0.748-0.363-1.156-0.363-1.156-0.976c0-0.499,0.726-0.93,1.542-0.93c1.95,0,1.859,2.109,4.512,2.109
		c0.612,0,0.635-0.25,1.18-0.25c0.702,0,1.065,0.499,1.065,0.952c0,0.862-1.021,1.814-2.108,2.54
		c1.428,1.927,3.854,4.603,3.854,6.326c0,1.088-0.703,1.496-1.293,1.496c-1.451,0-2.357-2.335-5.396-2.335
		c-1.769,0-3.106,1.201-3.106,2.448c0,1.724,1.61,2.562,3.47,2.562c1.292,0,1.542-0.091,1.859-0.431
		c0.566,0,2.154,0.748,2.154,1.542s-1.111,1.088-2.926,1.088C398.694,198.63,396.086,196.907,396.086,194.413z M403.025,183.574
		c0-0.431-0.816-0.612-1.882-1.429c0,0.204,0.204,0.59,0.566,0.998l0.885,1.043C402.821,184.096,403.025,183.869,403.025,183.574z"
		/>
	<path d="M397.153,219.289c-0.068-2.086,1.36-3.492,3.604-5.034c-0.067-1.36-0.271-2.04-1.11-2.04c-1.338,0-2.291,3.129-3.583,3.129
		c-0.59,0-0.907-0.363-0.907-1.065c0-0.59,0.137-0.84,0.545-1.451c1.065-0.84,2.312-1.905,3.196-4.399
		c-1.314,0.046-3.083-0.158-3.083-1.609c0-0.295,0.045-0.567,0.204-0.862c0.385,0.612,0.68,0.839,1.655,0.839
		c0.748,0,1.587-0.181,1.813-0.227c0.295-0.816,0.386-1.587,0.386-2.063c0-0.793-0.386-1.043-1.043-1.27
		c0.544-0.612,0.906-0.657,1.179-0.657c1.111,0,1.904,1.292,1.928,1.609c-0.182,0.363-0.341,0.998-0.59,1.837
		c1.429-0.386,1.089-0.839,1.429-1.202c0.635-0.022,2.108,0.182,2.108,1.066c0,1.134-2.856,1.995-4.127,2.199
		c-0.431,0.861-1.156,2.517-1.813,3.311c0.431-0.25,1.065-0.317,1.314-0.317c1.18,0,1.883,0.793,2.063,2.086
		c0.567-2.517,2.449-4.172,4.036-4.172c1.588,0,2.926,1.201,2.926,2.471c0,1.814-2.472,2.019-6.463,3.492l0.046,1.247
		c0.045,1.27,0,2.29-0.907,2.29c-0.499,0-1.043-0.453-1.247-1.314v-1.497c-1.52,0.975-1.905,1.928-1.905,2.607
		c0,1.134,0.953,1.61,2.926,1.61c2.222,0,2.789-0.59,3.446-1.043c0.544,0.045,1.746,0.657,1.769,1.225
		c0.045,0.906-0.93,1.882-4.807,1.882C399.079,221.965,397.198,220.944,397.153,219.289z M407.469,210.922
		c0-0.499-0.59-0.861-1.678-0.816c-1.111,0.046-2.517,2.199-2.653,3.106C405.7,212.078,407.469,211.829,407.469,210.922z"/>
	<path d="M370.541,35.604c0-0.635,0.158-1.406,0.204-1.792c-1.384-0.657-1.973-1.973-1.973-3.106c0-1.315,1.451-2.291,2.925-2.789
		c-1.52-0.749-2.041-1.973-2.041-3.016c0-0.34,0.068-0.726,0.249-1.179c0.318,1.043,1.18,2.154,2.495,2.154
		c0.09-0.476,0.227-1.406,0.227-1.904c0-1.678-0.794-1.542-1.271-1.905c0.25-0.363,0.749-0.59,1.089-0.59
		c0.885,0,2.494,1.111,2.494,2.54c0,0.408-0.317,0.703-0.657,1.996c0.431,0,2.04,0.544,2.04,1.542c0,0.635-0.566,1.111-2.652,1.111
		c-0.137,0.59-0.521,2.607-0.635,3.333c1.043,0,1.11-0.34,1.519-0.34c0.317,0,1.973,0.408,1.973,1.406
		c0,0.952-1.156,1.088-3.809,1.088c-0.046,0.34-0.159,1.179-0.159,1.836c0,1.859,1.065,3.039,3.062,3.039
		c2.018,0,3.311-1.678,3.311-4.376c0-2.88-1.974-5.465-2.109-6.213c1.564,0.952,4.104,3.809,4.104,6.893
		c0,3.673-2.676,5.215-5.442,5.215C372.106,40.546,370.541,38.052,370.541,35.604z M371.765,28.665
		c-1.314,0.363-1.769,0.975-1.769,1.519c0,0.794,0.228,1.134,1.089,1.52C371.267,30.638,371.538,29.436,371.765,28.665z"/>
	<path d="M372.31,60.503c0.34-0.272,2.04-0.544,2.947-0.749c2.108-0.476,6.666-2.131,6.666-6.122c0-1.791-1.292-3.515-4.036-3.515
		c-3.491,0-8.23,3.266-9.138,4.059c-1.292,0-3.129-1.61-3.129-2.608c0-0.929,0.182-1.179,0.612-1.406
		c0.249,0.477,0.907,1.088,1.27,1.088c1.859,0,6.576-2.721,10.612-2.721c2.993,0,6.009,1.927,6.009,5.283
		c0,3.968-3.47,6.961-10.295,6.961C373.262,60.775,372.559,60.617,372.31,60.503z"/>
	<path d="M364.737,73.294h8.843v-0.952h-7.302v-1.633h7.302v-0.952h-8.072v-1.814h8.072v-1.36h2.562v1.36h8.071v1.814h-8.071v0.952
		h7.301v1.633h-7.301v0.952h8.843v1.746h-20.248V73.294z M366.981,75.856h15.759v7.8c0,2.381-0.295,2.607-3.038,2.607
		c-0.635,0-1.724-0.045-3.266-0.113l-0.045-1.973c1.7,0.068,2.721,0.113,3.038,0.113c0.885,0,0.885,0,0.885-0.635v-0.544h-10.906
		v3.22h-2.427V75.856z M380.314,78.668v-0.975h-10.906v0.975H380.314z M380.314,81.434v-1.043h-10.906v1.043H380.314z"/>
	<path d="M367.457,99.509c-0.046-1.088,0.158-2.222,0.158-3.083c0-2.404-0.861-2.2-1.655-2.766c0.159-0.295,0.839-0.703,1.293-0.703
		c1.111,0,2.562,0.816,2.562,2.63c0,0.363-0.432,2.154-0.432,4.036c0,2.041,0.84,2.993,1.18,3.151
		c0.476-0.181,1.383-4.059,2.88-5.147c-0.113,0.748-1.406,3.583-1.406,5.963c0,1.111,0.975,1.088,0.975,2.222
		c0,0.476-0.476,0.862-1.27,0.862C370.655,106.674,367.706,105.382,367.457,99.509z M381.243,100.28
		c-0.454-3.628-1.769-4.739-4.422-5.238c0.567-0.34,1.293-0.499,2.041-0.499c2.358,0,4.875,2.812,4.875,5.827
		c0,1.429-0.635,1.61-1.089,1.61C382.173,101.98,381.357,101.187,381.243,100.28z"/>
	<path d="M372.65,126.358c0-2.381,1.791-4.467,2.721-4.988c-4.308,1.383-5.465,2.675-5.714,3.083c-0.453,0-2.676-0.93-2.676-2.312
		c0-0.363,0.068-0.794,0.272-0.975c0.453,0.09,0.839,0.431,1.225,0.431c0.635,0,2.29-1.723,3.265-2.653
		c1.52-1.429,4.263-3.832,4.354-4.195c-0.726,0.113-2.086,0.454-3.401,1.474c-0.498,0-2.199-0.839-2.199-2.041
		c0-0.589,0.182-1.066,0.499-1.225c0.204,0.386,0.657,1.021,1.27,1.021c0.952,0,3.945-0.658,4.331-1.043
		c0.136-0.136,0.272-0.386,0.499-0.386c0.907,0,2.177,1.429,2.177,1.928c0,0.272-0.317,0.476-0.612,0.521
		c-0.453,0.068-0.59,0.748-2.971,2.222c-1.859,1.156-4.285,3.469-4.398,3.741c6.031-1.769,8.095-2.018,8.412-2.721
		c1.27,0.113,2.676,0.975,2.676,1.996c0,0.34-0.227,0.657-0.681,0.657c-0.544,0-1.201-0.113-1.791-0.113
		c-2.653,0-5.76,1.973-5.76,4.83c0,1.837,0.794,2.925,2.88,2.925c0.182,0,0.25-0.045,0.386-0.068
		c1.633,0.499,1.904,1.519,1.904,1.723c0,0.544-0.476,0.93-1.769,0.93C374.327,131.12,372.65,129.011,372.65,126.358z"/>
	<path d="M372.037,153.569c4.92-1.36,7.324-3.151,7.324-5.419c0-1.792-1.18-2.767-2.812-2.767c-3.197,0-3.447,3.764-4.694,4.104
		c-0.884,0-2.108-0.681-2.108-3.175c0-3.696,0.499-8.458,5.374-8.593c-0.068-1.134-1.497-1.338-2.925-2.313
		c0.544-0.204,0.884-0.25,1.314-0.25c2.676,0,4.399,1.678,4.399,3.243c0,0.657-0.635,1.315-1.134,1.315
		c-0.681,0-1.089-0.816-2.381-0.816c-0.907,0-2.041,0.386-2.041,1.406c0,0.25,0.022,0.839,0.022,1.315
		c0,1.224-0.793,3.152-0.793,4.126c0,0.295,0.091,0.431,0.271,0.59c0.726-0.839,2.562-2.222,5.102-2.222
		c2.608,0,4.604,1.497,4.604,4.671c0,3.311-4.626,4.966-7.233,4.966C373.489,153.751,372.627,153.683,372.037,153.569z"/>
	<path d="M380.722,162.099c-0.635-1.338-2.88-2.971-3.311-4.399c1.451,0,6.417,1.179,6.417,4.149c0,0.93-0.499,2.086-1.52,2.086
		C381.538,163.935,381.153,162.96,380.722,162.099z"/>
	<path d="M344.495,40.569c4.172-1.52,6.1-4.558,6.1-9.456c0-1.746-0.408-2.812-1.904-2.812c-1.633,0-3.356,2.245-4.036,2.245
		c-1.043,0-2.268-0.93-2.268-1.995c0-0.816,0.158-1.247,0.408-1.383c0.181,0.703,0.499,0.93,1.179,0.93
		c1.179,0,3.22-1.428,5.079-1.428c2.767,0,3.741,2.063,3.741,4.92c0,4.58-2.856,9.07-7.687,9.07
		C344.926,40.66,344.655,40.592,344.495,40.569z M347.602,23.586c0-0.589-1.928-0.975-2.199-2.199c3.22,0,5.215,1.542,5.215,2.812
		c0,0.544-0.182,1.111-0.748,1.111c-0.386,0-0.657-0.431-1.429-0.431c-0.635,0-1.542,0.295-2.268,0.431
		C346.559,24.697,347.602,24.266,347.602,23.586z"/>
	<path d="M345.38,60.503c0.34-0.272,2.04-0.544,2.947-0.749c2.108-0.476,6.666-2.131,6.666-6.122c0-1.791-1.292-3.515-4.036-3.515
		c-3.491,0-8.23,3.266-9.138,4.059c-1.292,0-3.129-1.61-3.129-2.608c0-0.929,0.182-1.179,0.612-1.406
		c0.249,0.477,0.907,1.088,1.27,1.088c1.859,0,6.576-2.721,10.612-2.721c2.993,0,6.009,1.927,6.009,5.283
		c0,3.968-3.47,6.961-10.295,6.961C346.332,60.775,345.629,60.617,345.38,60.503z"/>
	<path d="M346.922,81.729c-2.268-3.061-3.288-3.81-3.288-5.147c0-2.517,5.011-6.123,5.011-8.254c0-0.589-0.386-0.93-0.884-1.315
		c0.453-0.295,0.771-0.454,1.224-0.454c0.885,0,2.019,1.157,2.019,2.676c0,1.111-1.065,1.836-3.355,4.172
		c-1.384,1.406-2.109,2.449-2.109,3.084c0,0.544,0.431,1.134,3.242,4.104c1.588,1.678,2.336,2.925,2.336,3.877
		c0,1.088-0.566,1.95-1.474,1.95C348.463,86.423,349.257,84.881,346.922,81.729z"/>
	<path d="M343.044,101.187c0-3.764,0.363-6.213,0.363-8.707c0-1.134-0.636-1.338-1.111-1.792c0.182-0.34,0.816-0.635,1.225-0.635
		c2.063,0,2.721,1.564,2.812,2.268c-0.726,1.406-1.225,5.85-1.225,8.888c0,3.673,1.021,5.011,3.832,5.011
		c2.743,0,5.782-3.378,6.689-4.172c-0.658,2.63-3.742,6.167-7.188,6.167C345.902,108.216,343.044,107.241,343.044,101.187z"/>
	<path d="M340.528,122.186c-0.046-1.088,0.158-2.222,0.158-3.083c0-2.404-0.861-2.2-1.655-2.766
		c0.159-0.295,0.839-0.703,1.293-0.703c1.111,0,2.562,0.816,2.562,2.63c0,0.363-0.432,2.154-0.432,4.036
		c0,2.041,0.84,2.993,1.18,3.151c0.476-0.181,1.383-4.059,2.88-5.147c-0.113,0.748-1.406,3.583-1.406,5.963
		c0,1.111,0.975,1.088,0.975,2.222c0,0.476-0.476,0.862-1.27,0.862C343.725,129.351,340.777,128.059,340.528,122.186z
		 M354.314,122.957c-0.454-3.628-1.769-4.739-4.422-5.238c0.567-0.34,1.293-0.499,2.041-0.499c2.358,0,4.875,2.812,4.875,5.827
		c0,1.429-0.635,1.61-1.089,1.61C355.243,124.657,354.427,123.864,354.314,122.957z"/>
	<path d="M341.366,149.193c-0.839,1.405-1.837,2.652-2.925,3.764l-1.202-1.724c1.52-1.36,2.698-2.788,3.56-4.262h-2.766v-1.905
		h3.333v-2.108h2.335v2.108h2.699v1.905h-2.427c0.907,0.771,1.928,1.746,3.062,2.857l-1.271,1.451
		c-0.612-0.703-1.292-1.428-2.063-2.199v5.532h-2.335V149.193z M346.718,139.534c-1.928,1.519-4.535,2.97-7.755,4.354l-0.862-1.95
		c2.88-1.111,5.329-2.29,7.302-3.537h-6.485v-1.996h7.801v-1.791h2.426v1.791h7.8v1.996h-6.484c1.973,1.247,4.421,2.426,7.301,3.537
		l-0.861,1.95c-3.22-1.383-5.827-2.834-7.755-4.354v4.535h-2.426V139.534z M351.23,149.488c-1.065,1.428-2.403,2.834-3.99,4.172
		l-1.247-1.587c2.04-1.678,3.628-3.356,4.762-5.102h-3.379v-1.905h3.854v-2.108h2.312v2.108h4.286v1.905h-3.561
		c1.021,1.564,2.472,3.106,4.331,4.648l-1.201,1.724c-1.542-1.293-2.835-2.631-3.855-4.059v5.328h-2.312V149.488z"/>
	<path d="M345.742,169.581c0-4.195,3.379-7.007,4.943-7.823c-3.923,0.454-7.143,1.95-8.503,2.857c-0.59,0-3.197-1.156-3.197-2.494
		c0-0.521,0.272-0.885,0.59-1.111c0.271,0.499,0.612,0.907,1.973,0.907c0.771,0,2.743-0.545,4.738-0.998
		c1.565-0.362,3.243-0.566,4.717-0.861c1.36-0.272,2.131-0.771,2.426-1.156c2.132,0.317,3.062,1.338,3.062,1.813
		c0,0.612-0.204,0.907-0.885,0.907c-0.271,0-0.702-0.091-0.906-0.091c-3.538,0-7.029,3.446-7.029,7.143
		c0,3.311,1.338,4.693,2.562,4.693c0.25,0,0.386-0.022,0.567-0.136c1.406,0.159,2.517,0.771,2.517,1.542
		c0,0.453-0.408,1.088-2.222,1.088C348.804,175.861,345.742,174.456,345.742,169.581z M350.686,165.681
		c0.317-0.091,0.726-0.227,1.201-0.227c1.429,0,2.902,0.907,2.902,2.132c0,0.544-0.249,0.997-0.793,0.997
		C353.248,168.583,353.021,167.495,350.686,165.681z M352.545,164.094c0.249-0.113,0.907-0.249,1.338-0.249
		c1.292,0,2.766,0.702,2.766,1.813c0,0.499-0.317,1.043-0.68,1.043C355.243,166.701,354.789,165.567,352.545,164.094z"/>
	<path d="M324.709,29.618h-1.724v9.818h-1.609l-1.791,1.021l-0.885-1.52c-2.403,0.907-4.897,1.633-7.505,2.2l-0.408-1.882
		c0.521-0.113,0.952-0.204,1.314-0.272V27.01l-0.997,0.703l-0.612-2.245c1.769-1.202,3.355-2.562,4.739-4.059h2.63
		c0.952,1.021,2.018,1.973,3.175,2.812c0.498-1.043,0.884-2.063,1.179-3.106l2.086,0.318c-0.068,0.317-0.249,0.839-0.477,1.587
		h7.483v2.063h-4.331V27.6h3.923v8.616c0,2.879-0.25,3.22-2.54,3.22c-0.113,0-0.589-0.023-1.383-0.091v2.109h-2.268V29.618z
		 M315.39,26.013v-1.814h2.268v1.814h2.108c-1.134-0.975-2.222-2.018-3.197-3.129c-0.952,1.088-2.04,2.154-3.196,3.129H315.39z
		 M317.702,37.327c-0.521-0.861-0.93-1.474-1.156-1.859l1.882-0.998c0.658,0.975,1.451,2.313,2.404,3.9V27.963l-0.885-0.477v6.599
		h-5.714v4.331C315.616,38.03,316.773,37.645,317.702,37.327z M317.975,29.142v-1.497h-3.741v1.497H317.975z M317.975,32.339v-1.542
		h-3.741v1.542H317.975z M319.993,26.194h-0.023l-0.022-0.022v0.068L319.993,26.194z M324.709,27.6v-2.517h-1.7
		c-0.477,0.952-0.93,1.792-1.406,2.517H324.709z M328.7,36.216v-6.598h-1.724v7.709c0.453,0.045,0.726,0.068,0.884,0.068
		C328.677,37.396,328.7,37.373,328.7,36.216z"/>
	<path d="M318.179,62.861c4.921-1.36,7.324-3.151,7.324-5.419c0-1.792-1.18-2.767-2.812-2.767c-3.197,0-3.447,3.764-4.694,4.104
		c-0.884,0-2.108-0.681-2.108-3.175c0-3.696,0.499-8.458,5.374-8.593c-0.068-1.134-1.497-1.338-2.925-2.313
		c0.544-0.204,0.884-0.25,1.314-0.25c2.676,0,4.399,1.678,4.399,3.243c0,0.657-0.635,1.315-1.134,1.315
		c-0.681,0-1.089-0.816-2.381-0.816c-0.907,0-2.041,0.386-2.041,1.406c0,0.25,0.022,0.839,0.022,1.315
		c0,1.224-0.793,3.152-0.793,4.126c0,0.295,0.091,0.431,0.271,0.59c0.726-0.839,2.562-2.222,5.103-2.222
		c2.607,0,4.603,1.497,4.603,4.671c0,3.311-4.626,4.966-7.233,4.966C319.63,63.043,318.769,62.975,318.179,62.861z"/>
	<path d="M315.004,80.346c-1.156,2.585-0.93,3.356-1.813,3.356c-0.794,0-1.247-0.952-1.247-1.61c0-1.179,0.499-1.383,2.086-4.308
		c-0.816-1.383-1.587-2.335-1.587-3.401c0-0.658,0.204-2.54,3.832-3.197c0.091-0.657,0.113-1.202,0.113-1.632v-0.408
		c0-0.726-0.703-1.134-1.247-1.383c0.249-0.363,0.453-0.68,1.36-0.68c1.179,0,2.426,0.953,2.426,1.905
		c-0.249,0.589-0.408,0.635-0.748,1.95c0.34,0,1.111,0.227,1.111,0.771c0,0.726-0.386,0.839-1.429,2.267l-0.022,0.136
		c0.227-0.25,3.877-3.968,6.304-3.968c2.426,0,2.992,1.451,2.992,3.424c0,1.996-0.611,5.079-0.611,7.029
		c0,1.814,0.884,2.177,1.654,2.177c1.429,0,3.197-2.313,3.492-2.857c0,1.61-1.633,4.489-4.172,4.489
		c-2.154,0-3.062-1.542-3.062-3.469c0-1.61,0.521-5.487,0.521-7.233c0-1.519-0.498-1.973-1.496-1.973
		c-1.724,0-4.762,2.653-5.691,3.968c0,6.145,0.34,6.916,0.34,7.981c0,0.544-0.544,1.542-1.338,1.542
		C315.436,85.221,316.138,82.999,315.004,80.346z M316.093,73.09c-1.497,0.204-2.517,0.907-2.517,1.52
		c0,0.544,0.317,1.7,0.884,2.607C315.345,75.38,315.911,73.929,316.093,73.09z M315.934,80.822c0-0.453,0.046-1.904,0.046-2.675
		c-0.272,0.567-0.477,0.952-0.567,1.224c0.159,0.658,0.317,1.27,0.499,1.95C315.934,81.298,315.934,80.958,315.934,80.822z"/>
	<path d="M313.349,105.767c0-0.272,0.091-0.884,0.204-1.202c1.066-0.793,2.427-5.487,2.722-7.8c-0.545,0.023-0.953,0.068-1.36,0.068
		c-1.202,0-2.381-0.567-2.381-1.927c0.294,0.068,1.156,0.34,1.949,0.34c0.635,0,1.451-0.136,2.086-0.408
		c0.114-0.771,0.182-1.836,0.182-2.154c0-1.633-0.726-1.973-1.542-2.109c0.295-0.499,0.885-0.862,1.429-0.862
		c0.59,0,2.177,0.998,2.268,1.792c-0.113,0.272-0.317,1.678-0.477,2.721c1.202-0.566,1.497-1.043,1.497-1.587
		c0-0.454-0.657-0.59-0.93-1.111c0.34,0.045,0.726,0.25,1.134,0.25c0.271,0,0.703-0.181,0.907-0.272
		c0.839,0.159,1.791,0.499,1.791,1.315c0,1.27-2.698,3.016-4.671,3.628c-1.791,10.544-2.381,11.428-3.47,11.428
		C313.825,107.876,313.349,106.651,313.349,105.767z M321.467,103.976c0-1.021,0.408-1.746,0.975-2.426
		c-0.045,0.544-0.113,1.338-0.113,1.61c0,1.224,1.882,1.905,3.401,1.905c0.657,0,1.134-0.045,1.587-0.295
		c1.065,0,2.29,0.748,2.29,1.27c0,1.202-2.04,1.315-3.537,1.315C323.303,107.354,321.467,106.039,321.467,103.976z M326.864,96.425
		c-0.227-0.227-1.065-0.386-2.109-0.386c-0.726,0-2.29,0.363-2.63,0.363c0.861-1.111,2.857-1.882,4.671-1.882
		c1.678,0,2.834,0.612,2.834,1.633c0,1.134-3.22,1.088-5.282,1.973C324.778,97.4,326.455,96.606,326.864,96.425z"/>
	<path d="M318.656,124.725c0-0.499,0.022-1.043,0.045-1.61c-2.268,0.477-3.401,0.703-5.057,1.179c-0.748-0.272-1.95-1.36-1.95-2.222
		c0-0.635,0.318-0.93,0.567-1.043c0.59,0.68,0.861,0.884,1.405,0.884c0.976,0,2.562-0.317,5.057-0.635
		c0.068-1.156,0.113-2.041,0.113-2.562c0-0.635-0.067-0.929-0.249-1.224c-2.222,0.476-2.358,0.635-2.812,0.793
		c-0.612-0.204-1.973-0.93-1.973-1.927c0-0.612,0.136-0.793,0.408-1.134c0.34,0.34,0.521,0.612,1.429,0.612
		c0.861,0,6.167-0.726,8.208-1.633c1.225,0.25,2.244,0.862,2.244,1.61c0,0.091-0.022,0.363-0.136,0.499
		c-0.839,0.363-2.971,0.182-5.918,0.839c1.225,0.227,1.496,0.59,1.496,0.816c0,0.159-0.067,0.317-0.227,0.476
		c-0.091,0.34-0.182,1.156-0.271,2.494c2.131-0.272,4.398-0.567,6.076-1.224c0.93,0,2.268,0.861,2.268,1.632
		c0,0.454-0.317,0.703-0.635,0.816c-1.451,0-4.762,0.091-7.755,0.567c-0.045,0.726-0.045,1.451-0.045,2.426
		c0,1.564,0.408,2.131,1.882,2.131c1.813,0,2.585-0.454,3.151-0.726c1.043,0.159,2.245,0.499,2.245,1.519
		c0,0.182-0.091,0.499-0.204,0.612c-0.816,0.363-2.653,0.748-4.58,0.748C319.789,129.441,318.656,128.716,318.656,124.725z"/>
	<path d="M317.181,145.407c-0.113-0.635-0.113-2.698-0.113-4.127c0-1.542,0.068-2.698,0.068-3.174c0-0.544-0.567-0.68-1.043-0.952
		c0.204-0.34,0.499-0.567,1.088-0.567c0.885,0,1.996,0.771,2.54,1.859c-0.159,0.839-0.386,0.793-0.386,4.24
		c0,0.862,0.068,2.472,0.068,3.039c0,0.726-0.499,0.952-0.93,0.952S317.453,146.065,317.181,145.407z M318.247,153.888
		c4.308-3.855,4.738-7.075,4.738-9.909c0-0.839-0.067-1.632-0.067-2.358c0-2.653-0.068-4.082-0.068-4.785
		c0-0.635-0.657-0.907-1.27-1.043c0.249-0.612,0.839-0.816,1.405-0.816c0.976,0,2.744,1.292,2.744,2.063
		c0,0.204-0.091,0.34-0.204,0.544c-0.136,1.292-0.182,2.63-0.182,3.832c0,0.862,0.022,1.655,0.022,2.313
		c0,7.074-5.464,10.248-6.484,10.248C318.746,153.978,318.519,153.978,318.247,153.888z"/>
	<path d="M319.608,173.821c0.408-2.313,0.59-7.165,0.59-10.771c0-5.079-0.545-3.515-1.202-4.648
		c0.453-0.477,0.839-0.681,1.315-0.681c1.179,0,2.721,1.633,2.721,2.427c-0.681,1.609-0.703,5.011-0.703,8.911
		c0.022,4.671,0.204,4.92,0.204,5.623c0,1.814-0.657,2.223-1.225,2.223C320.424,176.905,319.834,175.182,319.608,173.821z"/>
	<path d="M321.671,197.903c-1.066-1.769-2.223-2.675-2.494-3.016c0.34,0,1.882,0.272,2.698,0.839
		c0.158-0.227,0.204-2.153,0.204-5.283c-2.494,3.197-6.576,5.012-8.186,5.012c-0.431,0-0.749-0.068-0.952-0.25
		c4.693-2.607,7.142-5.056,8.593-7.573c-2.585,0.295-4.716,0.839-5.124,0.93c-0.386-0.158-2.132-1.065-2.132-2.199
		c0-0.431,0.159-1.043,0.499-1.043c0.25,0.453,0.976,0.861,1.995,0.861c1.451,0,3.356-0.204,5.261-0.431
		c0-1.315,0.022-2.381,0.022-2.925c0-0.567-0.453-1.111-1.065-1.497c0.182-0.476,0.612-0.771,1.043-0.771
		c0.93,0,2.585,1.52,2.585,1.724c0,0.317-0.453,0.997-0.476,3.196c2.131-0.204,2.652-0.385,2.992-0.635
		c0.477,0,2.245,0.635,2.245,1.655c0,0.477-0.34,0.681-1.021,0.681c-1.134,0-3.174,0.022-4.194,0.158l0.022,8.979
		c0,1.202-1.383,2.336-1.928,2.336C321.92,198.652,321.739,198.176,321.671,197.903z"/>
	<path d="M319.675,211.488h-5.056v9.364h-2.313v-11.405h7.369v-2.517h-8.57v-2.041h8.57v-2.245h2.427v2.245h8.798v2.041h-8.798
		v2.517h7.596v8.186c0,2.902-0.295,3.22-2.767,3.22c-0.113,0-0.317,0-0.566-0.022c-0.499-0.022-1.564-0.091-2.29-0.113l-0.113-2.019
		c1.134,0.068,1.973,0.113,2.494,0.113c0.907,0,0.93-0.022,0.93-1.179v-6.145h-5.283v11.382h-2.427V211.488z"/>
	<path d="M326.864,230.131c-0.635-1.338-2.88-2.971-3.311-4.399c1.451,0,6.417,1.18,6.417,4.149c0,0.93-0.499,2.086-1.52,2.086
		C327.68,231.967,327.294,230.992,326.864,230.131z"/>
	<path d="M283.585,39.186c2.041-1.179,3.741-2.653,5.079-4.421c-1.043-1.111-1.904-2.018-2.63-2.698l1.519-1.474
		c0.794,0.726,1.564,1.474,2.336,2.268c0.657-1.225,1.156-2.449,1.451-3.65l1.156,0.294c-0.68-0.975-1.315-1.836-1.973-2.607
		l1.904-1.088c1.338,1.61,2.427,3.197,3.334,4.716l-1.701,1.497c-0.386-0.635-0.68-1.111-0.861-1.429
		c-0.408,1.338-0.976,2.653-1.746,3.923c1.27,1.383,2.517,2.88,3.719,4.467l-1.746,1.542c-1.156-1.542-2.245-2.925-3.265-4.104
		c-1.475,1.904-3.288,3.469-5.397,4.693L283.585,39.186z M283.676,30.547c1.383-1.428,2.426-3.016,3.197-4.739l1.973,0.975
		c-0.861,2.041-2.086,3.832-3.65,5.396L283.676,30.547z M283.834,23.541h4.626v-2.312h2.312v2.312h4.671v1.973h-11.609V23.541z
		 M296.306,21.999h7.936v1.859c-0.635,1.973-1.451,3.923-2.494,5.805c1.701,1.429,2.653,3.447,2.653,5.533
		c0,2.54-1.089,3.628-3.47,3.628h-1.36l-0.385-2.018h0.611c1.859,0,2.313-0.363,2.313-1.678c0-1.769-0.976-3.537-2.902-5.351
		c1.065-1.859,1.973-3.855,2.698-5.918h-3.333v17.278h-2.268V21.999z"/>
	<path d="M297.915,54.2c-1.065-0.907-2.153-1.95-3.265-3.106c-1.065,6.44-4.309,10.68-9.251,12.607l-0.885-1.928
		c2.88-1.111,5.057-3.151,6.53-6.145c-1.315-1.021-2.494-1.905-3.537-2.63l1.292-1.701c1.18,0.816,2.223,1.564,3.106,2.245
		c0.499-1.587,0.794-3.333,0.885-5.238h-3.81c-0.997,2.789-2.222,5.192-3.719,7.21l-1.451-1.678
		c1.973-3.016,3.356-6.326,4.173-9.954l2.131,0.25c-0.136,0.703-0.317,1.406-0.499,2.154h5.374c0,0.929-0.022,1.61-0.045,2.086
		c0.952,1.065,1.949,2.086,2.97,3.038V44.11h2.358v9.296c1.474,1.134,3.016,2.154,4.58,3.061l-0.952,1.927
		c-1.383-0.793-2.585-1.564-3.628-2.335v7.845h-2.358V54.2z"/>
	<path d="M293.154,84.564c3.47-1.315,7.823-3.175,7.823-8.571c0-3.832-2.676-5.873-6.281-5.873c0.386,0.567,0.681,1.225,0.681,1.927
		c0,3.764-3.424,10.657-7.074,10.657c-1.18,0-1.95-1.021-2.631-2.222c-0.635-1.134-0.657-1.61-0.657-2.789
		c0-4.308,4.172-8.798,9.886-8.798c4.988,0,8.345,2.971,8.345,7.914c0,5.578-6.712,7.845-8.866,7.845
		C294.061,84.654,293.448,84.654,293.154,84.564z M293.992,71.05c0-0.408-0.136-0.726-0.181-0.884
		c-2.971,0.136-6.894,3.446-6.894,7.188c0,1.474,0.545,2.948,1.52,2.948C289.866,80.301,293.992,75.63,293.992,71.05z"/>
	<path d="M287.553,104.633c0-2.698,2.88-3.809,4.943-3.809s3.062,0.68,3.446,0.68c0.046,0,0.25-0.045,0.25-0.182
		c0-0.408-0.658-1.474-1.156-2.222c-1.044,0.25-2.087,0.363-3.197,0.363c-2.403,0-3.923-1.134-3.923-2.245
		c0-0.363,0.091-0.771,0.362-0.998c0.272,0.771,1.293,1.406,2.902,1.406c1.111,0,2.132-0.113,2.948-0.34
		c-0.363-0.703-0.726-1.361-1.065-1.973c-0.658,0.182-1.633,0.295-2.336,0.295c-1.247,0-2.108-0.748-2.108-1.61
		c0-0.227,0.091-0.499,0.249-0.771c0.453,0.454,0.521,0.771,1.497,0.771c0.476,0,1.179-0.091,1.882-0.272
		c-1.089-2.245-1.429-2.676-2.177-2.676c-0.204,0-0.521-0.068-0.771-0.272c0.159-0.317,0.25-1.043,1.678-1.043
		c0.794,0,1.633,0.295,1.769,0.635c0.432,1.088,0.408,1.406,1.021,2.857c0.567-0.25,0.862-0.454,0.885-0.907
		c0.59,0,2.199,0.294,2.199,0.93c0,0.612-0.816,1.156-2.381,1.632c0.295,0.658,0.681,1.338,1.043,1.927
		c0.567-0.181,1.111-0.521,1.111-0.771c0-0.363-0.703-0.748-1.247-1.156c1.405,0.295,1.769,0.34,2.652,0.34
		c0.816,0,1.202,0.453,1.202,1.065c0,1.36-1.769,1.927-2.494,2.313l1.043,1.701c0.521,0.839,0.794,1.451,0.794,2.199
		c0,0.793-0.25,1.792-1.225,1.792c-1.36,0-1.882-2.291-5.238-2.291c-1.7,0-2.743,0.885-2.743,2.086c0,1.474,1.927,2.108,3.401,2.108
		c1.179,0,1.882-0.294,2.086-0.521c0.748,0,2.358,0.567,2.358,1.451s-2.132,1.225-3.401,1.225
		C289.367,108.352,287.553,106.356,287.553,104.633z M297.236,92.752c0.317-0.091,0.726-0.227,1.201-0.227
		c1.429,0,2.902,0.907,2.902,2.131c0,0.544-0.249,0.998-0.793,0.998C299.797,95.654,299.571,94.566,297.236,92.752z M299.095,91.165
		c0.249-0.113,0.906-0.249,1.338-0.249c1.292,0,2.766,0.703,2.766,1.814c0,0.499-0.317,1.043-0.68,1.043
		C301.793,93.772,301.339,92.639,299.095,91.165z"/>
	<path d="M291.249,130.893c4.921-1.36,7.324-3.151,7.324-5.419c0-1.792-1.18-2.767-2.812-2.767c-3.197,0-3.447,3.764-4.694,4.104
		c-0.884,0-2.108-0.681-2.108-3.175c0-3.696,0.499-8.458,5.374-8.593c-0.068-1.134-1.497-1.338-2.925-2.313
		c0.544-0.204,0.884-0.25,1.314-0.25c2.676,0,4.399,1.678,4.399,3.243c0,0.657-0.635,1.315-1.134,1.315
		c-0.681,0-1.089-0.816-2.381-0.816c-0.907,0-2.041,0.386-2.041,1.406c0,0.25,0.022,0.839,0.022,1.315
		c0,1.224-0.793,3.152-0.793,4.126c0,0.295,0.091,0.431,0.271,0.59c0.726-0.839,2.562-2.222,5.103-2.222
		c2.607,0,4.603,1.497,4.603,4.671c0,3.311-4.626,4.966-7.233,4.966C292.7,131.074,291.839,131.006,291.249,130.893z"/>
	<path d="M287.553,149.987c0-2.698,2.88-3.809,4.943-3.809s3.062,0.68,3.446,0.68c0.046,0,0.25-0.045,0.25-0.182
		c0-0.408-0.658-1.474-1.156-2.222c-1.044,0.249-2.087,0.362-3.197,0.362c-2.403,0-3.923-1.133-3.923-2.245
		c0-0.363,0.091-0.771,0.362-0.998c0.272,0.771,1.293,1.406,2.902,1.406c1.111,0,2.132-0.113,2.948-0.34
		c-0.363-0.703-0.726-1.36-1.065-1.973c-0.658,0.182-1.633,0.295-2.336,0.295c-1.247,0-2.108-0.748-2.108-1.61
		c0-0.227,0.091-0.499,0.249-0.771c0.453,0.454,0.521,0.771,1.497,0.771c0.476,0,1.179-0.091,1.882-0.272
		c-1.089-2.245-1.429-2.676-2.177-2.676c-0.204,0-0.521-0.068-0.771-0.272c0.159-0.317,0.25-1.043,1.678-1.043
		c0.794,0,1.633,0.294,1.769,0.635c0.432,1.088,0.408,1.406,1.021,2.857c0.567-0.25,0.862-0.454,0.885-0.907
		c0.59,0,2.199,0.294,2.199,0.93c0,0.612-0.816,1.156-2.381,1.632c0.295,0.658,0.681,1.338,1.043,1.927
		c0.567-0.181,1.111-0.521,1.111-0.771c0-0.363-0.703-0.748-1.247-1.156c1.405,0.295,1.769,0.34,2.652,0.34
		c0.816,0,1.202,0.453,1.202,1.065c0,1.361-1.769,1.927-2.494,2.313l1.043,1.701c0.521,0.839,0.794,1.451,0.794,2.199
		c0,0.793-0.25,1.792-1.225,1.792c-1.36,0-1.882-2.29-5.238-2.29c-1.7,0-2.743,0.884-2.743,2.086c0,1.474,1.927,2.108,3.401,2.108
		c1.179,0,1.882-0.295,2.086-0.521c0.748,0,2.358,0.566,2.358,1.451c0,0.884-2.132,1.225-3.401,1.225
		C289.367,153.706,287.553,151.711,287.553,149.987z M297.236,138.106c0.317-0.091,0.726-0.227,1.201-0.227
		c1.429,0,2.902,0.907,2.902,2.131c0,0.544-0.249,0.998-0.793,0.998C299.797,141.008,299.571,139.92,297.236,138.106z
		 M299.095,136.519c0.249-0.113,0.906-0.249,1.338-0.249c1.292,0,2.766,0.703,2.766,1.814c0,0.499-0.317,1.043-0.68,1.043
		C301.793,139.126,301.339,137.993,299.095,136.519z"/>
	<path d="M291.249,176.247c4.921-1.36,7.324-3.151,7.324-5.419c0-1.791-1.18-2.767-2.812-2.767c-3.197,0-3.447,3.765-4.694,4.104
		c-0.884,0-2.108-0.681-2.108-3.175c0-3.695,0.499-8.458,5.374-8.594c-0.068-1.134-1.497-1.338-2.925-2.312
		c0.544-0.204,0.884-0.25,1.314-0.25c2.676,0,4.399,1.679,4.399,3.243c0,0.657-0.635,1.315-1.134,1.315
		c-0.681,0-1.089-0.817-2.381-0.817c-0.907,0-2.041,0.386-2.041,1.406c0,0.25,0.022,0.839,0.022,1.315
		c0,1.225-0.793,3.151-0.793,4.127c0,0.295,0.091,0.431,0.271,0.589c0.726-0.839,2.562-2.222,5.103-2.222
		c2.607,0,4.603,1.496,4.603,4.671c0,3.311-4.626,4.966-7.233,4.966C292.7,176.429,291.839,176.36,291.249,176.247z"/>
	<path d="M259.581,34.062c0-2.154,1.043-5.147,2.993-7.301c-0.476,0-1.383,0.68-1.859,0.68c-1.201,0-2.086-1.27-2.086-1.95
		c0-0.34,0.046-0.839,0.408-1.179c0.34,0.59,0.839,0.998,1.769,0.998c2.177,0,2.971-1.859,3.764-1.859
		c0.408,0,0.726,0.521,1.202,0.839c0.386,0.249,0.885,0.227,0.885,0.816c0,0.884-5.624,3.197-5.624,8.276
		c0,2.018,0.952,4.581,4.195,4.581c2.812,0,4.988-2.177,4.988-7.392c0-3.991-0.657-4.92-1.111-7.075
		c0.227-0.793,0.567-0.839,1.156-0.839c0.59,0,2.132,0.93,2.132,1.792c0,0.25-0.317,0.294-0.317,0.68
		c0,1.973,1.496,4.535,2.97,5.215c0.794,0.862,1.021,1.111,1.021,1.882c0,0.454-0.181,1.247-1.021,1.247
		c-0.748,0-2.357-1.066-3.899-4.92c0,0.907,0.34,2.653,0.34,3.56c0,4.308-1.36,8.049-6.484,8.049
		C260.602,40.161,259.581,36.307,259.581,34.062z"/>
	<path d="M259.197,60.186c0-0.794,0.113-1.179,0.34-1.474c1.405-0.09,3.582-5.238,4.376-7.21c-1.156,0.34-2.426,1.134-2.902,1.451
		c-0.771,0-2.018-1.406-2.018-2.562c0-0.907,0.476-0.998,0.612-1.066c0.113,0.431,0.34,1.111,1.745,1.111
		c0.658,0,2.041-0.34,3.084-0.612c0.477-1.519,0.635-2.676,0.635-3.129c0-0.998-0.385-1.27-1.201-1.61
		c0.136-0.227,0.476-0.612,1.065-0.612s2.449,0.499,2.449,1.927c0,0.499-0.408,1.428-0.885,2.902
		c0.521-0.136,1.043-0.295,1.564-0.295c1.678,0,2.472,1.043,2.472,4.399c0,4.943-2.585,8.594-4.807,8.594
		c-0.749,0-0.907-0.612-1.247-1.61c-0.454-0.771-0.59-0.998-1.361-2.063c1.089,0.544,1.95,1.27,2.449,1.27
		c1.542,0,3.151-4.059,3.151-6.576c0-1.769-0.271-2.517-1.314-2.517c-0.477,0-1.066,0.227-1.52,0.34
		c-1.292,3.742-4.331,11.179-5.328,11.179C260.035,62.022,259.197,61.546,259.197,60.186z M272.098,53.701
		c0.59-0.136,2.199-0.295,2.381-0.59c-0.453-2.154-1.542-1.95-3.038-4.558c3.56,1.564,5.532,2.63,5.532,5.102
		c0,0.952-0.34,2.177-1.791,2.177C274.909,55.379,275.045,54.767,272.098,53.701z"/>
	<path d="M263.527,83.067c0-1.429,1.406-2.494,2.857-2.494c1.065,0,2.789,0.567,2.88,2.834c1.813-0.612,2.698-2.222,2.698-3.696
		c0-2.517-1.882-3.673-3.945-3.673c-1.701,0-3.039,0.816-4.286,2.426c-1.156,1.497-1.27,3.152-2.268,3.152
		c-0.521,0-1.133-0.658-1.133-1.746c0-2.426,8.253-9.387,8.344-10.067c-0.975,0.317-2.947,1.156-3.469,1.497
		c-0.998,0-2.336-1.179-2.336-1.928c0-0.408,0.113-0.726,0.566-1.224c0.204,0.385,0.612,0.884,1.111,0.884
		c1.633,0,4.604-1.27,5.012-1.27c1.088,0.34,2.018,1.202,2.018,1.905c0,0.386-0.362,0.408-0.657,0.658
		c-0.771,0.658-2.722,1.655-5.374,5.102c0.59-0.385,1.564-0.748,2.743-0.748c3.379,0,5.986,1.95,5.986,4.897
		c0,4.195-4.558,5.669-6.485,5.669C266.452,85.244,263.527,85.107,263.527,83.067z M267.722,83.77c0-0.748-0.59-1.701-1.474-1.701
		c-0.703,0-0.976,0.544-0.976,0.907c0,0.612,0.567,0.907,1.451,0.907C267.065,83.883,267.518,83.838,267.722,83.77z"/>
	<path d="M265.931,106.855h-8.798v-1.882h8.798v-1.633h-6.599v-8.797h2.743v-1.587h-4.716v-1.905h4.716v-1.905h2.313v1.905h5.51
		v-1.905h2.312v1.905h4.717v1.905h-4.717v1.587h2.744v8.797h-6.599v1.633h8.798v1.882h-8.798v2.744h-2.426V106.855z M272.597,98.013
		v-1.678h-10.906v1.678H272.597z M272.597,101.527v-1.769h-10.906v1.769H272.597z M269.899,94.543v-1.587h-5.51v1.587H269.899z"/>
	<path d="M266.225,129.918c3.47-1.315,7.823-3.175,7.823-8.571c0-3.832-2.676-5.873-6.281-5.873
		c0.386,0.567,0.681,1.224,0.681,1.927c0,3.764-3.424,10.657-7.074,10.657c-1.18,0-1.95-1.021-2.631-2.222
		c-0.635-1.134-0.657-1.61-0.657-2.789c0-4.308,4.172-8.798,9.886-8.798c4.988,0,8.345,2.971,8.345,7.914
		c0,5.578-6.712,7.845-8.866,7.845C267.132,130.008,266.52,130.008,266.225,129.918z M267.065,116.404
		c0-0.408-0.137-0.726-0.182-0.884c-2.971,0.136-6.894,3.446-6.894,7.188c0,1.474,0.544,2.948,1.52,2.948
		C262.938,125.655,267.065,120.984,267.065,116.404z"/>
	<path d="M256.543,141.438l1.338-1.564c1.496,1.066,2.834,2.177,4.036,3.288l-1.36,1.655
		C259.286,143.638,257.972,142.527,256.543,141.438z M257.065,153.161c1.315-1.995,2.403-4.217,3.22-6.598l1.973,0.771
		c-0.816,2.676-1.904,5.033-3.311,7.097L257.065,153.161z M257.518,136.609l1.361-1.587c1.451,1.089,2.652,2.063,3.628,2.971
		l-1.361,1.655C260.058,138.627,258.856,137.629,257.518,136.609z M261.327,152.64c1.338-2.426,1.905-5.306,1.905-10.067V136.7h5.94
		v-2.086h2.335v2.086h5.76v1.973c-0.34,1.043-0.794,2.018-1.383,3.016l-1.883-0.952c0.432-0.68,0.771-1.383,1.066-2.063h-3.561
		v3.424h4.331v1.927c-0.884,2.449-2.041,4.444-3.446,6.032c1.383,0.998,3.106,1.791,5.102,2.358l-0.544,1.995
		c-2.403-0.59-4.444-1.542-6.122-2.834c-1.564,1.247-3.492,2.199-5.76,2.834l-0.771-1.995c1.904-0.499,3.515-1.293,4.853-2.335
		c-1.247-1.315-2.268-2.925-3.106-4.83l1.973-0.839c0.726,1.678,1.632,3.061,2.721,4.195c1.065-1.225,1.973-2.767,2.698-4.581
		h-8.004v0.091c0,4.399-0.839,7.868-2.494,10.407L261.327,152.64z M269.173,142.096v-3.424h-3.741v3.424H269.173z"/>
	<path d="M270.057,160.692c0-1.859,1.497-3.355,3.356-3.355s3.355,1.496,3.355,3.355s-1.496,3.356-3.355,3.356
		S270.057,162.552,270.057,160.692z M275.59,160.692c0-1.202-0.976-2.177-2.177-2.177c-1.202,0-2.177,0.975-2.177,2.177
		c0,1.201,0.975,2.177,2.177,2.177C274.615,162.869,275.59,161.894,275.59,160.692z"/>
</g>
</svg>
